<?xml version="1.0" encoding="iso-8859-1"?>
<!-- Uploaded to: SVG Repo, www.svgrepo.com, Generator: SVG Repo Mixer Tools -->
<svg fill="#000000" version="1.1" id="Layer_1" xmlns="http://www.w3.org/2000/svg" xmlns:xlink="http://www.w3.org/1999/xlink" 
	 viewBox="0 0 297.797 297.797" xml:space="preserve">
<g>
	<g>
		<g>
			<path d="M1.279,269.224v9.524v19.048h66.667v-19.048v-9.524v-19.048H1.279V269.224z M10.803,259.7h47.619v9.524H10.803V259.7z
				 M10.803,278.747h47.619v9.524H10.803V278.747z"/>
			<path d="M77.469,250.176v9.524v9.524v9.524v19.048h66.667v-19.048v-9.524V259.7v-9.524v-19.048H77.469V250.176z M86.993,240.652
				h47.619v9.524H86.993V240.652z M86.993,259.7h47.619v9.524H86.993V259.7z M86.993,278.747h47.619v9.524H86.993V278.747z"/>
			<path d="M153.661,231.129v9.524v9.524v9.524v9.524v9.524v19.048h66.667v-19.048v-9.524V259.7v-9.524v-9.524v-9.524V212.08
				h-66.667V231.129z M163.183,221.605h47.619v9.524h-47.619V221.605z M163.183,240.652h47.619v9.524h-47.619V240.652z
				 M163.183,259.7h47.619v9.524h-47.619V259.7z M163.183,278.747h47.619v9.524h-47.619V278.747z"/>
			<path d="M229.851,193.032v0.001v19.048v9.524v9.524v9.524v9.524v9.524v9.524v9.524v19.048h66.667v-19.048v-9.524V259.7v-9.524
				v-9.524v-9.524v-9.524v-9.524v-19.048H229.851z M239.375,202.557h47.619v9.524h-47.619V202.557z M286.994,288.271h-47.619v-9.524
				h47.619V288.271z M286.994,269.224h-47.619V259.7h47.619V269.224z M286.994,250.176h-47.619v-9.524h47.619V250.176z
				 M286.994,231.129h-47.619v-9.524h47.619V231.129z"/>
			<path d="M258.422,183.51h9.524c0-23.633-19.224-42.857-42.857-42.857c-21.21,0-38.867,15.486-42.267,35.743
				c-7.843-10.148-20.133-16.695-33.924-16.695c-21.21,0-38.867,15.486-42.267,35.743c-7.843-10.148-20.133-16.695-33.924-16.695
				c-23.633,0-42.857,19.224-42.857,42.857h9.524c0-18.376,14.957-33.333,33.333-33.333s33.333,14.957,33.333,33.333h9.524v-19.048
				c0-18.376,14.957-33.333,33.333-33.333c18.376,0,33.333,14.957,33.333,33.333h9.524V183.51c0-18.376,14.957-33.333,33.333-33.333
				S258.422,165.133,258.422,183.51z"/>
			<rect x="29.85" y="231.129" width="9.524" height="9.524"/>
			<rect x="239.375" y="45.414" width="9.524" height="85.714"/>
			<polygon points="263.184,14.638 288.141,43.752 295.37,37.552 263.184,0 230.998,37.552 238.227,43.752 			"/>
			<rect x="277.469" y="45.414" width="9.524" height="85.714"/>
			<rect x="258.422" y="102.557" width="9.524" height="9.524"/>
			<rect x="258.422" y="35.89" width="9.524" height="57.143"/>
			<rect x="258.422" y="121.605" width="9.524" height="9.524"/>
			<rect x="258.422" y="140.652" width="9.524" height="9.524"/>
			<path d="M67.946,93.033c41.814,0,60.233-24.724,61-25.776l2.024-2.795l-2.029-2.795c-0.762-1.052-19.181-25.776-60.995-25.776
				c-41.814,0-60.233,24.724-61,25.776l-2.024,2.795l2.029,2.795C7.712,68.31,26.131,93.033,67.946,93.033z M118.774,64.443
				c-3.929,4.009-12.681,11.381-26.962,15.69c2.967-4.505,4.705-9.886,4.705-15.671c0-5.805-1.752-11.205-4.738-15.719
				C106.136,53.029,114.85,60.405,118.774,64.443z M67.946,45.414c10.505,0,19.048,8.543,19.048,19.048S78.451,83.51,67.946,83.51
				s-19.047-8.543-19.047-19.048S57.441,45.414,67.946,45.414z M44.079,48.79c-2.967,4.505-4.705,9.886-4.705,15.671
				c0,5.805,1.752,11.205,4.738,15.719c-14.357-4.286-23.071-11.662-26.995-15.7C21.045,60.471,29.798,53.1,44.079,48.79z"/>
			<rect x="63.183" y="2.557" width="9.524" height="19.048"/>
			<rect x="21.264" y="14.463" transform="matrix(0.5547 0.8321 -0.8321 0.5547 29.2896 -16.2761)" width="17.173" height="9.524"/>
			
				<rect x="101.277" y="10.636" transform="matrix(0.8321 0.5547 -0.5547 0.8321 28.4699 -55.5897)" width="9.524" height="17.173"/>
			<rect x="63.183" y="107.319" width="9.524" height="19.048"/>
			
				<rect x="101.278" y="101.118" transform="matrix(-0.8321 0.5547 -0.5547 -0.8321 255.1239 142.1678)" width="9.524" height="17.173"/>
			
				<rect x="21.266" y="104.934" transform="matrix(-0.5547 0.8321 -0.8321 -0.5547 137.6851 145.7041)" width="17.173" height="9.524"/>
		</g>
	</g>
</g>
</svg>