<svg width="566" height="566" viewBox="0 0 566 566" fill="none" xmlns="http://www.w3.org/2000/svg">
<rect width="566" height="566" rx="20" fill="#DAF7F4"/>
<path d="M123.548 417V361H148.668C155.122 361 160.082 362.307 163.548 364.92C167.015 367.48 168.748 371 168.748 375.48C168.748 378.52 168.055 381.08 166.668 383.16C165.335 385.24 163.522 386.84 161.228 387.96C158.935 389.08 156.455 389.64 153.788 389.64L155.228 387.24C158.428 387.24 161.255 387.8 163.708 388.92C166.162 390.04 168.108 391.693 169.548 393.88C170.988 396.013 171.708 398.68 171.708 401.88C171.708 406.68 169.895 410.413 166.268 413.08C162.695 415.693 157.362 417 150.268 417H123.548ZM131.548 410.52H149.948C154.375 410.52 157.762 409.773 160.108 408.28C162.455 406.787 163.628 404.44 163.628 401.24C163.628 397.987 162.455 395.613 160.108 394.12C157.762 392.627 154.375 391.88 149.948 391.88H130.828V385.4H147.948C152.002 385.4 155.148 384.653 157.388 383.16C159.628 381.667 160.748 379.427 160.748 376.44C160.748 373.453 159.628 371.213 157.388 369.72C155.148 368.227 152.002 367.48 147.948 367.48H131.548V410.52ZM200.815 417.48C197.189 417.48 193.989 416.813 191.215 415.48C188.495 414.147 186.362 412.12 184.815 409.4C183.322 406.627 182.575 403.16 182.575 399V374.6H190.255V398.12C190.255 402.28 191.242 405.4 193.215 407.48C195.242 409.56 198.069 410.6 201.695 410.6C204.362 410.6 206.682 410.067 208.655 409C210.629 407.88 212.149 406.28 213.215 404.2C214.282 402.067 214.815 399.507 214.815 396.52V374.6H222.495V417H215.215V405.56L216.415 408.6C215.029 411.427 212.949 413.613 210.175 415.16C207.402 416.707 204.282 417.48 200.815 417.48ZM249.276 417.48C245.756 417.48 242.396 417 239.196 416.04C236.049 415.08 233.569 413.907 231.756 412.52L234.956 406.44C236.769 407.667 239.009 408.707 241.676 409.56C244.343 410.413 247.063 410.84 249.836 410.84C253.409 410.84 255.969 410.333 257.516 409.32C259.116 408.307 259.916 406.893 259.916 405.08C259.916 403.747 259.436 402.707 258.476 401.96C257.516 401.213 256.236 400.653 254.636 400.28C253.089 399.907 251.356 399.587 249.436 399.32C247.516 399 245.596 398.627 243.676 398.2C241.756 397.72 239.996 397.08 238.396 396.28C236.796 395.427 235.516 394.28 234.556 392.84C233.596 391.347 233.116 389.373 233.116 386.92C233.116 384.36 233.836 382.12 235.276 380.2C236.716 378.28 238.743 376.813 241.356 375.8C244.023 374.733 247.169 374.2 250.796 374.2C253.569 374.2 256.369 374.547 259.196 375.24C262.076 375.88 264.423 376.813 266.236 378.04L262.956 384.12C261.036 382.84 259.036 381.96 256.956 381.48C254.876 381 252.796 380.76 250.716 380.76C247.356 380.76 244.849 381.32 243.196 382.44C241.543 383.507 240.716 384.893 240.716 386.6C240.716 388.04 241.196 389.16 242.156 389.96C243.169 390.707 244.449 391.293 245.996 391.72C247.596 392.147 249.356 392.52 251.276 392.84C253.196 393.107 255.116 393.48 257.036 393.96C258.956 394.387 260.689 395 262.236 395.8C263.836 396.6 265.116 397.72 266.076 399.16C267.089 400.6 267.596 402.52 267.596 404.92C267.596 407.48 266.849 409.693 265.356 411.56C263.863 413.427 261.756 414.893 259.036 415.96C256.316 416.973 253.063 417.48 249.276 417.48ZM277.194 417V374.6H284.874V417H277.194ZM281.034 366.44C279.541 366.44 278.287 365.96 277.274 365C276.314 364.04 275.834 362.867 275.834 361.48C275.834 360.04 276.314 358.84 277.274 357.88C278.287 356.92 279.541 356.44 281.034 356.44C282.527 356.44 283.754 356.92 284.714 357.88C285.727 358.787 286.234 359.933 286.234 361.32C286.234 362.76 285.754 363.987 284.794 365C283.834 365.96 282.581 366.44 281.034 366.44ZM322.178 374.2C325.644 374.2 328.684 374.867 331.298 376.2C333.964 377.533 336.044 379.56 337.538 382.28C339.031 385 339.778 388.44 339.778 392.6V417H332.098V393.48C332.098 389.373 331.084 386.28 329.058 384.2C327.084 382.12 324.284 381.08 320.658 381.08C317.938 381.08 315.564 381.613 313.538 382.68C311.511 383.747 309.938 385.32 308.818 387.4C307.751 389.48 307.218 392.067 307.218 395.16V417H299.538V374.6H306.898V386.04L305.698 383C307.084 380.227 309.218 378.067 312.098 376.52C314.978 374.973 318.338 374.2 322.178 374.2ZM372.871 417.48C368.338 417.48 364.338 416.547 360.871 414.68C357.458 412.813 354.791 410.253 352.871 407C351.004 403.747 350.071 400.013 350.071 395.8C350.071 391.587 350.978 387.853 352.791 384.6C354.658 381.347 357.191 378.813 360.391 377C363.644 375.133 367.298 374.2 371.351 374.2C375.458 374.2 379.084 375.107 382.231 376.92C385.378 378.733 387.831 381.293 389.591 384.6C391.404 387.853 392.311 391.667 392.311 396.04C392.311 396.36 392.284 396.733 392.231 397.16C392.231 397.587 392.204 397.987 392.151 398.36H356.071V392.84H388.151L385.031 394.76C385.084 392.04 384.524 389.613 383.351 387.48C382.178 385.347 380.551 383.693 378.471 382.52C376.444 381.293 374.071 380.68 371.351 380.68C368.684 380.68 366.311 381.293 364.231 382.52C362.151 383.693 360.524 385.373 359.351 387.56C358.178 389.693 357.591 392.147 357.591 394.92V396.2C357.591 399.027 358.231 401.56 359.511 403.8C360.844 405.987 362.684 407.693 365.031 408.92C367.378 410.147 370.071 410.76 373.111 410.76C375.618 410.76 377.884 410.333 379.911 409.48C381.991 408.627 383.804 407.347 385.351 405.64L389.591 410.6C387.671 412.84 385.271 414.547 382.391 415.72C379.564 416.893 376.391 417.48 372.871 417.48ZM415.135 417.48C411.615 417.48 408.255 417 405.055 416.04C401.909 415.08 399.429 413.907 397.615 412.52L400.815 406.44C402.629 407.667 404.869 408.707 407.535 409.56C410.202 410.413 412.922 410.84 415.695 410.84C419.269 410.84 421.829 410.333 423.375 409.32C424.975 408.307 425.775 406.893 425.775 405.08C425.775 403.747 425.295 402.707 424.335 401.96C423.375 401.213 422.095 400.653 420.495 400.28C418.949 399.907 417.215 399.587 415.295 399.32C413.375 399 411.455 398.627 409.535 398.2C407.615 397.72 405.855 397.08 404.255 396.28C402.655 395.427 401.375 394.28 400.415 392.84C399.455 391.347 398.975 389.373 398.975 386.92C398.975 384.36 399.695 382.12 401.135 380.2C402.575 378.28 404.602 376.813 407.215 375.8C409.882 374.733 413.029 374.2 416.655 374.2C419.429 374.2 422.229 374.547 425.055 375.24C427.935 375.88 430.282 376.813 432.095 378.04L428.815 384.12C426.895 382.84 424.895 381.96 422.815 381.48C420.735 381 418.655 380.76 416.575 380.76C413.215 380.76 410.709 381.32 409.055 382.44C407.402 383.507 406.575 384.893 406.575 386.6C406.575 388.04 407.055 389.16 408.015 389.96C409.029 390.707 410.309 391.293 411.855 391.72C413.455 392.147 415.215 392.52 417.135 392.84C419.055 393.107 420.975 393.48 422.895 393.96C424.815 394.387 426.549 395 428.095 395.8C429.695 396.6 430.975 397.72 431.935 399.16C432.949 400.6 433.455 402.52 433.455 404.92C433.455 407.48 432.709 409.693 431.215 411.56C429.722 413.427 427.615 414.893 424.895 415.96C422.175 416.973 418.922 417.48 415.135 417.48ZM455.213 417.48C451.693 417.48 448.333 417 445.133 416.04C441.987 415.08 439.507 413.907 437.693 412.52L440.893 406.44C442.707 407.667 444.947 408.707 447.613 409.56C450.28 410.413 453 410.84 455.773 410.84C459.347 410.84 461.907 410.333 463.453 409.32C465.053 408.307 465.853 406.893 465.853 405.08C465.853 403.747 465.373 402.707 464.413 401.96C463.453 401.213 462.173 400.653 460.573 400.28C459.027 399.907 457.293 399.587 455.373 399.32C453.453 399 451.533 398.627 449.613 398.2C447.693 397.72 445.933 397.08 444.333 396.28C442.733 395.427 441.453 394.28 440.493 392.84C439.533 391.347 439.053 389.373 439.053 386.92C439.053 384.36 439.773 382.12 441.213 380.2C442.653 378.28 444.68 376.813 447.293 375.8C449.96 374.733 453.107 374.2 456.733 374.2C459.507 374.2 462.307 374.547 465.133 375.24C468.013 375.88 470.36 376.813 472.173 378.04L468.893 384.12C466.973 382.84 464.973 381.96 462.893 381.48C460.813 381 458.733 380.76 456.653 380.76C453.293 380.76 450.787 381.32 449.133 382.44C447.48 383.507 446.653 384.893 446.653 386.6C446.653 388.04 447.133 389.16 448.093 389.96C449.107 390.707 450.387 391.293 451.933 391.72C453.533 392.147 455.293 392.52 457.213 392.84C459.133 393.107 461.053 393.48 462.973 393.96C464.893 394.387 466.627 395 468.173 395.8C469.773 396.6 471.053 397.72 472.013 399.16C473.027 400.6 473.533 402.52 473.533 404.92C473.533 407.48 472.787 409.693 471.293 411.56C469.8 413.427 467.693 414.893 464.973 415.96C462.253 416.973 459 417.48 455.213 417.48ZM204.095 515V459H212.095V508.04H242.415V515H204.095ZM268.088 515.48C263.822 515.48 260.035 514.547 256.728 512.68C253.422 510.813 250.808 508.253 248.888 505C246.968 501.693 246.008 497.96 246.008 493.8C246.008 489.587 246.968 485.853 248.888 482.6C250.808 479.347 253.422 476.813 256.728 475C260.035 473.133 263.822 472.2 268.088 472.2C272.302 472.2 276.062 473.133 279.368 475C282.728 476.813 285.342 479.347 287.208 482.6C289.128 485.8 290.088 489.533 290.088 493.8C290.088 498.013 289.128 501.747 287.208 505C285.342 508.253 282.728 510.813 279.368 512.68C276.062 514.547 272.302 515.48 268.088 515.48ZM268.088 508.76C270.808 508.76 273.235 508.147 275.368 506.92C277.555 505.693 279.262 503.96 280.488 501.72C281.715 499.427 282.328 496.787 282.328 493.8C282.328 490.76 281.715 488.147 280.488 485.96C279.262 483.72 277.555 481.987 275.368 480.76C273.235 479.533 270.808 478.92 268.088 478.92C265.368 478.92 262.942 479.533 260.808 480.76C258.675 481.987 256.968 483.72 255.688 485.96C254.408 488.147 253.768 490.76 253.768 493.8C253.768 496.787 254.408 499.427 255.688 501.72C256.968 503.96 258.675 505.693 260.808 506.92C262.942 508.147 265.368 508.76 268.088 508.76ZM326.639 515V506.04L326.239 504.36V489.08C326.239 485.827 325.279 483.32 323.359 481.56C321.492 479.747 318.666 478.84 314.879 478.84C312.372 478.84 309.919 479.267 307.519 480.12C305.119 480.92 303.092 482.013 301.439 483.4L298.239 477.64C300.426 475.88 303.039 474.547 306.079 473.64C309.172 472.68 312.399 472.2 315.759 472.2C321.572 472.2 326.052 473.613 329.199 476.44C332.346 479.267 333.919 483.587 333.919 489.4V515H326.639ZM312.719 515.48C309.572 515.48 306.799 514.947 304.399 513.88C302.052 512.813 300.239 511.347 298.959 509.48C297.679 507.56 297.039 505.4 297.039 503C297.039 500.707 297.572 498.627 298.639 496.76C299.759 494.893 301.546 493.4 303.999 492.28C306.506 491.16 309.866 490.6 314.079 490.6H327.519V496.12H314.399C310.559 496.12 307.972 496.76 306.639 498.04C305.306 499.32 304.639 500.867 304.639 502.68C304.639 504.76 305.466 506.44 307.119 507.72C308.772 508.947 311.066 509.56 313.999 509.56C316.879 509.56 319.386 508.92 321.519 507.64C323.706 506.36 325.279 504.493 326.239 502.04L327.759 507.32C326.746 509.827 324.959 511.827 322.399 513.32C319.839 514.76 316.612 515.48 312.719 515.48ZM370.772 472.2C374.238 472.2 377.278 472.867 379.892 474.2C382.558 475.533 384.638 477.56 386.132 480.28C387.625 483 388.372 486.44 388.372 490.6V515H380.692V491.48C380.692 487.373 379.678 484.28 377.652 482.2C375.678 480.12 372.878 479.08 369.252 479.08C366.532 479.08 364.158 479.613 362.132 480.68C360.105 481.747 358.532 483.32 357.412 485.4C356.345 487.48 355.812 490.067 355.812 493.16V515H348.132V472.6H355.492V484.04L354.292 481C355.678 478.227 357.812 476.067 360.692 474.52C363.572 472.973 366.932 472.2 370.772 472.2Z" fill="black"/>
<path d="M390.917 121.666H371.833M371.833 121.666H362.292C343.208 103.266 314.583 84.8309 295.5 103.25M371.833 121.666V195.332M295.5 103.25L266.871 130.89C266.114 131.621 265.735 131.986 265.43 132.31C258.812 139.336 258.815 150.067 265.437 157.091C265.742 157.414 266.121 157.78 266.878 158.51C267.635 159.24 268.014 159.606 268.349 159.9C275.629 166.284 286.745 166.283 294.022 159.896C294.357 159.602 294.736 159.237 295.492 158.506L305.038 149.294M295.5 103.25C276.417 84.8309 247.792 103.267 228.708 121.667H219.167M371.833 195.332V222.957H390.917M371.833 195.332H344.846M219.167 121.667H200.083M219.167 121.667V195.332M219.167 195.332H238.25L241.895 202.368C246.796 211.827 260.299 213.002 266.875 204.541C272.078 209.562 274.679 212.072 277.485 213.415C282.824 215.967 289.093 215.967 294.431 213.415C297.238 212.072 299.84 209.562 305.042 204.541L309.812 209.145C310.572 209.878 310.953 210.245 311.289 210.541C318.568 216.926 329.682 216.926 336.961 210.541C337.297 210.245 337.678 209.878 338.437 209.145C339.197 208.412 339.578 208.045 339.883 207.72C346.499 200.696 346.499 189.969 339.883 182.945C339.578 182.62 339.197 182.254 338.437 181.52L324.125 167.707M219.167 195.332V222.957H200.083" stroke="black" stroke-width="15" stroke-linecap="round" stroke-linejoin="round"/>
</svg>
