<svg width="566" height="566" viewBox="0 0 566 566" fill="none" xmlns="http://www.w3.org/2000/svg">
<rect width="566" height="566" rx="20" fill="#DAF7F4"/>
<path d="M209 162.927C209.046 157.885 210.647 152.979 213.584 148.873C216.522 144.766 220.655 141.657 225.424 139.966L238.764 105.677C239.952 102.881 241.921 100.483 244.437 98.768C246.953 97.0528 249.91 96.0921 252.957 96H337.043C340.09 96.0921 343.047 97.0528 345.563 98.768C348.079 100.483 350.048 102.881 351.236 105.677L364.588 139.966C369.355 141.659 373.486 144.769 376.421 148.876C379.356 152.982 380.955 157.887 381 162.927V197.531C380.997 199.06 380.386 200.525 379.3 201.606C378.215 202.687 376.743 203.296 375.208 203.299H367.026V221.233C367.023 222.761 366.412 224.226 365.326 225.307C364.241 226.388 362.77 226.997 361.235 227H349.309C347.774 226.997 346.303 226.388 345.217 225.307C344.132 224.226 343.521 222.761 343.517 221.233V203.299H246.482V221.233C246.479 222.761 245.868 224.226 244.783 225.307C243.697 226.388 242.226 226.997 240.691 227H228.765C227.23 226.997 225.759 226.388 224.674 225.307C223.588 224.226 222.977 222.761 222.974 221.233V203.299H214.792C213.257 203.296 211.785 202.687 210.7 201.606C209.614 200.525 209.003 199.06 209 197.531V162.927ZM247.287 163C247.287 160.526 246.551 158.108 245.171 156.051C243.791 153.995 241.829 152.392 239.534 151.445C237.239 150.499 234.714 150.251 232.278 150.734C229.842 151.216 227.604 152.407 225.847 154.156C224.091 155.905 222.895 158.134 222.41 160.56C221.926 162.986 222.174 165.5 223.125 167.785C224.075 170.071 225.685 172.024 227.751 173.398C229.816 174.772 232.244 175.506 234.728 175.506C236.377 175.506 238.011 175.182 239.534 174.554C241.058 173.925 242.443 173.004 243.609 171.843C244.775 170.681 245.7 169.303 246.331 167.785C246.962 166.268 247.287 164.642 247.287 163ZM240.496 138.436H349.48L338.628 110.546C338.241 110 337.67 109.612 337.018 109.453H252.957C252.315 109.618 251.753 110.005 251.372 110.546L240.496 138.436ZM367.807 163C367.807 160.526 367.07 158.107 365.689 156.05C364.309 153.993 362.347 152.39 360.051 151.444C357.755 150.498 355.229 150.251 352.793 150.734C350.356 151.218 348.118 152.41 346.363 154.161C344.607 155.911 343.411 158.14 342.928 160.567C342.445 162.994 342.695 165.509 343.648 167.794C344.6 170.079 346.212 172.031 348.279 173.404C350.346 174.777 352.775 175.508 355.26 175.506C358.591 175.506 361.785 174.188 364.14 171.843C366.496 169.497 367.807 166.316 367.807 163Z" fill="black"/>
<path d="M149.448 417.64C145.181 417.64 141.234 416.947 137.608 415.56C134.034 414.12 130.914 412.12 128.248 409.56C125.634 406.947 123.581 403.907 122.088 400.44C120.594 396.973 119.848 393.16 119.848 389C119.848 384.84 120.594 381.027 122.088 377.56C123.581 374.093 125.661 371.08 128.328 368.52C130.994 365.907 134.114 363.907 137.688 362.52C141.314 361.08 145.261 360.36 149.528 360.36C153.848 360.36 157.821 361.107 161.448 362.6C165.128 364.04 168.248 366.2 170.808 369.08L165.608 374.12C163.474 371.88 161.074 370.227 158.408 369.16C155.741 368.04 152.888 367.48 149.848 367.48C146.701 367.48 143.768 368.013 141.048 369.08C138.381 370.147 136.061 371.64 134.088 373.56C132.114 375.48 130.568 377.773 129.448 380.44C128.381 383.053 127.848 385.907 127.848 389C127.848 392.093 128.381 394.973 129.448 397.64C130.568 400.253 132.114 402.52 134.088 404.44C136.061 406.36 138.381 407.853 141.048 408.92C143.768 409.987 146.701 410.52 149.848 410.52C152.888 410.52 155.741 409.987 158.408 408.92C161.074 407.8 163.474 406.093 165.608 403.8L170.808 408.84C168.248 411.72 165.128 413.907 161.448 415.4C157.821 416.893 153.821 417.64 149.448 417.64ZM206.873 417V408.04L206.473 406.36V391.08C206.473 387.827 205.513 385.32 203.593 383.56C201.727 381.747 198.9 380.84 195.113 380.84C192.607 380.84 190.153 381.267 187.753 382.12C185.353 382.92 183.327 384.013 181.673 385.4L178.473 379.64C180.66 377.88 183.273 376.547 186.313 375.64C189.407 374.68 192.633 374.2 195.993 374.2C201.807 374.2 206.287 375.613 209.433 378.44C212.58 381.267 214.153 385.587 214.153 391.4V417H206.873ZM192.953 417.48C189.807 417.48 187.033 416.947 184.633 415.88C182.287 414.813 180.473 413.347 179.193 411.48C177.913 409.56 177.273 407.4 177.273 405C177.273 402.707 177.807 400.627 178.873 398.76C179.993 396.893 181.78 395.4 184.233 394.28C186.74 393.16 190.1 392.6 194.313 392.6H207.753V398.12H194.633C190.793 398.12 188.207 398.76 186.873 400.04C185.54 401.32 184.873 402.867 184.873 404.68C184.873 406.76 185.7 408.44 187.353 409.72C189.007 410.947 191.3 411.56 194.233 411.56C197.113 411.56 199.62 410.92 201.753 409.64C203.94 408.36 205.513 406.493 206.473 404.04L207.993 409.32C206.98 411.827 205.193 413.827 202.633 415.32C200.073 416.76 196.847 417.48 192.953 417.48ZM228.366 417V374.6H235.726V386.12L235.006 383.24C236.179 380.307 238.153 378.067 240.926 376.52C243.699 374.973 247.113 374.2 251.166 374.2V381.64C250.846 381.587 250.526 381.56 250.206 381.56C249.939 381.56 249.673 381.56 249.406 381.56C245.299 381.56 242.046 382.787 239.646 385.24C237.246 387.693 236.046 391.24 236.046 395.88V417H228.366ZM283.783 417V361H291.783V410.04H322.103V417H283.783ZM347.776 417.48C343.509 417.48 339.723 416.547 336.416 414.68C333.109 412.813 330.496 410.253 328.576 407C326.656 403.693 325.696 399.96 325.696 395.8C325.696 391.587 326.656 387.853 328.576 384.6C330.496 381.347 333.109 378.813 336.416 377C339.723 375.133 343.509 374.2 347.776 374.2C351.989 374.2 355.749 375.133 359.056 377C362.416 378.813 365.029 381.347 366.896 384.6C368.816 387.8 369.776 391.533 369.776 395.8C369.776 400.013 368.816 403.747 366.896 407C365.029 410.253 362.416 412.813 359.056 414.68C355.749 416.547 351.989 417.48 347.776 417.48ZM347.776 410.76C350.496 410.76 352.923 410.147 355.056 408.92C357.243 407.693 358.949 405.96 360.176 403.72C361.403 401.427 362.016 398.787 362.016 395.8C362.016 392.76 361.403 390.147 360.176 387.96C358.949 385.72 357.243 383.987 355.056 382.76C352.923 381.533 350.496 380.92 347.776 380.92C345.056 380.92 342.629 381.533 340.496 382.76C338.363 383.987 336.656 385.72 335.376 387.96C334.096 390.147 333.456 392.76 333.456 395.8C333.456 398.787 334.096 401.427 335.376 403.72C336.656 405.96 338.363 407.693 340.496 408.92C342.629 410.147 345.056 410.76 347.776 410.76ZM406.327 417V408.04L405.927 406.36V391.08C405.927 387.827 404.967 385.32 403.047 383.56C401.18 381.747 398.353 380.84 394.567 380.84C392.06 380.84 389.607 381.267 387.207 382.12C384.807 382.92 382.78 384.013 381.127 385.4L377.927 379.64C380.113 377.88 382.727 376.547 385.767 375.64C388.86 374.68 392.087 374.2 395.447 374.2C401.26 374.2 405.74 375.613 408.887 378.44C412.033 381.267 413.607 385.587 413.607 391.4V417H406.327ZM392.407 417.48C389.26 417.48 386.487 416.947 384.087 415.88C381.74 414.813 379.927 413.347 378.647 411.48C377.367 409.56 376.727 407.4 376.727 405C376.727 402.707 377.26 400.627 378.327 398.76C379.447 396.893 381.233 395.4 383.687 394.28C386.193 393.16 389.553 392.6 393.767 392.6H407.207V398.12H394.087C390.247 398.12 387.66 398.76 386.327 400.04C384.993 401.32 384.327 402.867 384.327 404.68C384.327 406.76 385.153 408.44 386.807 409.72C388.46 410.947 390.753 411.56 393.687 411.56C396.567 411.56 399.073 410.92 401.207 409.64C403.393 408.36 404.967 406.493 405.927 404.04L407.447 409.32C406.433 411.827 404.647 413.827 402.087 415.32C399.527 416.76 396.3 417.48 392.407 417.48ZM450.459 374.2C453.926 374.2 456.966 374.867 459.579 376.2C462.246 377.533 464.326 379.56 465.819 382.28C467.312 385 468.059 388.44 468.059 392.6V417H460.379V393.48C460.379 389.373 459.366 386.28 457.339 384.2C455.366 382.12 452.566 381.08 448.939 381.08C446.219 381.08 443.846 381.613 441.819 382.68C439.792 383.747 438.219 385.32 437.099 387.4C436.032 389.48 435.499 392.067 435.499 395.16V417H427.819V374.6H435.179V386.04L433.979 383C435.366 380.227 437.499 378.067 440.379 376.52C443.259 374.973 446.619 374.2 450.459 374.2Z" fill="black"/>
</svg>
