<svg width="566" height="566" viewBox="0 0 566 566" fill="none" xmlns="http://www.w3.org/2000/svg">
<rect width="566" height="566" rx="20" fill="#DAF7F4"/>
<path d="M108.711 385.16H137.511V391.96H108.711V385.16ZM109.431 410.04H142.071V417H101.431V361H140.951V367.96H109.431V410.04ZM170.878 417.48C166.771 417.48 163.091 416.573 159.838 414.76C156.638 412.947 154.105 410.413 152.238 407.16C150.371 403.907 149.438 400.12 149.438 395.8C149.438 391.48 150.371 387.72 152.238 384.52C154.105 381.267 156.638 378.733 159.838 376.92C163.091 375.107 166.771 374.2 170.878 374.2C174.451 374.2 177.678 375 180.558 376.6C183.438 378.2 185.731 380.6 187.438 383.8C189.198 387 190.078 391 190.078 395.8C190.078 400.6 189.225 404.6 187.518 407.8C185.865 411 183.598 413.427 180.718 415.08C177.838 416.68 174.558 417.48 170.878 417.48ZM171.518 410.76C174.185 410.76 176.585 410.147 178.718 408.92C180.905 407.693 182.611 405.96 183.838 403.72C185.118 401.427 185.758 398.787 185.758 395.8C185.758 392.76 185.118 390.147 183.838 387.96C182.611 385.72 180.905 383.987 178.718 382.76C176.585 381.533 174.185 380.92 171.518 380.92C168.798 380.92 166.371 381.533 164.238 382.76C162.105 383.987 160.398 385.72 159.118 387.96C157.838 390.147 157.198 392.76 157.198 395.8C157.198 398.787 157.838 401.427 159.118 403.72C160.398 405.96 162.105 407.693 164.238 408.92C166.371 410.147 168.798 410.76 171.518 410.76ZM185.998 417V405.56L186.478 395.72L185.678 385.88V357.64H193.358V417H185.998ZM225.729 417.48C222.103 417.48 218.903 416.813 216.129 415.48C213.409 414.147 211.276 412.12 209.729 409.4C208.236 406.627 207.489 403.16 207.489 399V374.6H215.169V398.12C215.169 402.28 216.156 405.4 218.129 407.48C220.156 409.56 222.983 410.6 226.609 410.6C229.276 410.6 231.596 410.067 233.569 409C235.543 407.88 237.063 406.28 238.129 404.2C239.196 402.067 239.729 399.507 239.729 396.52V374.6H247.409V417H240.129V405.56L241.329 408.6C239.943 411.427 237.863 413.613 235.089 415.16C232.316 416.707 229.196 417.48 225.729 417.48ZM280.51 417.48C276.19 417.48 272.323 416.547 268.91 414.68C265.55 412.813 262.91 410.253 260.99 407C259.07 403.747 258.11 400.013 258.11 395.8C258.11 391.587 259.07 387.853 260.99 384.6C262.91 381.347 265.55 378.813 268.91 377C272.323 375.133 276.19 374.2 280.51 374.2C284.35 374.2 287.763 374.973 290.75 376.52C293.79 378.013 296.137 380.253 297.79 383.24L291.95 387C290.563 384.92 288.857 383.4 286.83 382.44C284.857 381.427 282.723 380.92 280.43 380.92C277.657 380.92 275.177 381.533 272.99 382.76C270.803 383.987 269.07 385.72 267.79 387.96C266.51 390.147 265.87 392.76 265.87 395.8C265.87 398.84 266.51 401.48 267.79 403.72C269.07 405.96 270.803 407.693 272.99 408.92C275.177 410.147 277.657 410.76 280.43 410.76C282.723 410.76 284.857 410.28 286.83 409.32C288.857 408.307 290.563 406.76 291.95 404.68L297.79 408.36C296.137 411.293 293.79 413.56 290.75 415.16C287.763 416.707 284.35 417.48 280.51 417.48ZM334.053 417V408.04L333.653 406.36V391.08C333.653 387.827 332.693 385.32 330.773 383.56C328.906 381.747 326.08 380.84 322.293 380.84C319.786 380.84 317.333 381.267 314.933 382.12C312.533 382.92 310.506 384.013 308.853 385.4L305.653 379.64C307.84 377.88 310.453 376.547 313.493 375.64C316.586 374.68 319.813 374.2 323.173 374.2C328.986 374.2 333.466 375.613 336.613 378.44C339.76 381.267 341.333 385.587 341.333 391.4V417H334.053ZM320.133 417.48C316.986 417.48 314.213 416.947 311.813 415.88C309.466 414.813 307.653 413.347 306.373 411.48C305.093 409.56 304.453 407.4 304.453 405C304.453 402.707 304.986 400.627 306.053 398.76C307.173 396.893 308.96 395.4 311.413 394.28C313.92 393.16 317.28 392.6 321.493 392.6H334.933V398.12H321.813C317.973 398.12 315.386 398.76 314.053 400.04C312.72 401.32 312.053 402.867 312.053 404.68C312.053 406.76 312.88 408.44 314.533 409.72C316.186 410.947 318.48 411.56 321.413 411.56C324.293 411.56 326.8 410.92 328.933 409.64C331.12 408.36 332.693 406.493 333.653 404.04L335.173 409.32C334.16 411.827 332.373 413.827 329.813 415.32C327.253 416.76 324.026 417.48 320.133 417.48ZM370.106 417.48C365.839 417.48 362.532 416.333 360.186 414.04C357.839 411.747 356.666 408.467 356.666 404.2V365.32H364.346V403.88C364.346 406.173 364.906 407.933 366.026 409.16C367.199 410.387 368.852 411 370.986 411C373.386 411 375.386 410.333 376.986 409L379.386 414.52C378.212 415.533 376.799 416.28 375.146 416.76C373.546 417.24 371.866 417.48 370.106 417.48ZM349.466 380.92V374.6H376.506V380.92H349.466ZM388.671 417V374.6H396.351V417H388.671ZM392.511 366.44C391.017 366.44 389.764 365.96 388.751 365C387.791 364.04 387.311 362.867 387.311 361.48C387.311 360.04 387.791 358.84 388.751 357.88C389.764 356.92 391.017 356.44 392.511 356.44C394.004 356.44 395.231 356.92 396.191 357.88C397.204 358.787 397.711 359.933 397.711 361.32C397.711 362.76 397.231 363.987 396.271 365C395.311 365.96 394.057 366.44 392.511 366.44ZM429.174 417.48C424.908 417.48 421.121 416.547 417.814 414.68C414.508 412.813 411.894 410.253 409.974 407C408.054 403.693 407.094 399.96 407.094 395.8C407.094 391.587 408.054 387.853 409.974 384.6C411.894 381.347 414.508 378.813 417.814 377C421.121 375.133 424.908 374.2 429.174 374.2C433.388 374.2 437.148 375.133 440.454 377C443.814 378.813 446.428 381.347 448.294 384.6C450.214 387.8 451.174 391.533 451.174 395.8C451.174 400.013 450.214 403.747 448.294 407C446.428 410.253 443.814 412.813 440.454 414.68C437.148 416.547 433.388 417.48 429.174 417.48ZM429.174 410.76C431.894 410.76 434.321 410.147 436.454 408.92C438.641 407.693 440.348 405.96 441.574 403.72C442.801 401.427 443.414 398.787 443.414 395.8C443.414 392.76 442.801 390.147 441.574 387.96C440.348 385.72 438.641 383.987 436.454 382.76C434.321 381.533 431.894 380.92 429.174 380.92C426.454 380.92 424.028 381.533 421.894 382.76C419.761 383.987 418.054 385.72 416.774 387.96C415.494 390.147 414.854 392.76 414.854 395.8C414.854 398.787 415.494 401.427 416.774 403.72C418.054 405.96 419.761 407.693 421.894 408.92C424.028 410.147 426.454 410.76 429.174 410.76ZM484.436 374.2C487.902 374.2 490.942 374.867 493.556 376.2C496.222 377.533 498.302 379.56 499.796 382.28C501.289 385 502.036 388.44 502.036 392.6V417H494.356V393.48C494.356 389.373 493.342 386.28 491.316 384.2C489.342 382.12 486.542 381.08 482.916 381.08C480.196 381.08 477.822 381.613 475.796 382.68C473.769 383.747 472.196 385.32 471.076 387.4C470.009 389.48 469.476 392.067 469.476 395.16V417H461.796V374.6H469.156V386.04L467.956 383C469.342 380.227 471.476 378.067 474.356 376.52C477.236 374.973 480.596 374.2 484.436 374.2ZM209.595 515V459H217.595V508.04H247.915V515H209.595ZM273.588 515.48C269.322 515.48 265.535 514.547 262.228 512.68C258.922 510.813 256.308 508.253 254.388 505C252.468 501.693 251.508 497.96 251.508 493.8C251.508 489.587 252.468 485.853 254.388 482.6C256.308 479.347 258.922 476.813 262.228 475C265.535 473.133 269.322 472.2 273.588 472.2C277.802 472.2 281.562 473.133 284.868 475C288.228 476.813 290.842 479.347 292.708 482.6C294.628 485.8 295.588 489.533 295.588 493.8C295.588 498.013 294.628 501.747 292.708 505C290.842 508.253 288.228 510.813 284.868 512.68C281.562 514.547 277.802 515.48 273.588 515.48ZM273.588 508.76C276.308 508.76 278.735 508.147 280.868 506.92C283.055 505.693 284.762 503.96 285.988 501.72C287.215 499.427 287.828 496.787 287.828 493.8C287.828 490.76 287.215 488.147 285.988 485.96C284.762 483.72 283.055 481.987 280.868 480.76C278.735 479.533 276.308 478.92 273.588 478.92C270.868 478.92 268.442 479.533 266.308 480.76C264.175 481.987 262.468 483.72 261.188 485.96C259.908 488.147 259.268 490.76 259.268 493.8C259.268 496.787 259.908 499.427 261.188 501.72C262.468 503.96 264.175 505.693 266.308 506.92C268.442 508.147 270.868 508.76 273.588 508.76ZM332.139 515V506.04L331.739 504.36V489.08C331.739 485.827 330.779 483.32 328.859 481.56C326.992 479.747 324.166 478.84 320.379 478.84C317.872 478.84 315.419 479.267 313.019 480.12C310.619 480.92 308.592 482.013 306.939 483.4L303.739 477.64C305.926 475.88 308.539 474.547 311.579 473.64C314.672 472.68 317.899 472.2 321.259 472.2C327.072 472.2 331.552 473.613 334.699 476.44C337.846 479.267 339.419 483.587 339.419 489.4V515H332.139ZM318.219 515.48C315.072 515.48 312.299 514.947 309.899 513.88C307.552 512.813 305.739 511.347 304.459 509.48C303.179 507.56 302.539 505.4 302.539 503C302.539 500.707 303.072 498.627 304.139 496.76C305.259 494.893 307.046 493.4 309.499 492.28C312.006 491.16 315.366 490.6 319.579 490.6H333.019V496.12H319.899C316.059 496.12 313.472 496.76 312.139 498.04C310.806 499.32 310.139 500.867 310.139 502.68C310.139 504.76 310.966 506.44 312.619 507.72C314.272 508.947 316.566 509.56 319.499 509.56C322.379 509.56 324.886 508.92 327.019 507.64C329.206 506.36 330.779 504.493 331.739 502.04L333.259 507.32C332.246 509.827 330.459 511.827 327.899 513.32C325.339 514.76 322.112 515.48 318.219 515.48ZM376.272 472.2C379.738 472.2 382.778 472.867 385.392 474.2C388.058 475.533 390.138 477.56 391.632 480.28C393.125 483 393.872 486.44 393.872 490.6V515H386.192V491.48C386.192 487.373 385.178 484.28 383.152 482.2C381.178 480.12 378.378 479.08 374.752 479.08C372.032 479.08 369.658 479.613 367.632 480.68C365.605 481.747 364.032 483.32 362.912 485.4C361.845 487.48 361.312 490.067 361.312 493.16V515H353.632V472.6H360.992V484.04L359.792 481C361.178 478.227 363.312 476.067 366.192 474.52C369.072 472.973 372.432 472.2 376.272 472.2Z" fill="black"/>
<g clip-path="url(#clip0_3_68)">
<path d="M201.374 232.674L217.134 158.159C217.742 155.285 215.905 152.462 213.03 151.853C210.155 151.245 207.332 153.083 206.724 155.958L190.964 230.472C190.356 233.347 192.193 236.17 195.068 236.778C197.942 237.386 200.765 235.548 201.374 232.674ZM349.716 158.177L365.764 232.747C366.382 235.62 369.212 237.447 372.084 236.829C374.956 236.211 376.784 233.381 376.166 230.509L360.118 155.938C359.5 153.066 356.67 151.238 353.798 151.857C350.926 152.475 349.098 155.304 349.716 158.177Z" fill="black"/>
<path d="M401.31 127.504L289.208 81.064C286.453 79.9213 281.268 79.9101 278.504 81.0411L165.02 127.504L278.507 173.964C281.266 175.096 286.451 175.085 289.211 173.942L401.31 127.504V127.504ZM293.282 183.773C287.929 185.989 279.83 186.006 274.473 183.81L156.348 135.451C147.883 131.98 147.883 123.022 156.35 119.556L274.474 71.1944C279.835 68.9999 287.934 69.0171 293.282 71.235L409.875 119.535C418.308 123.027 418.308 131.981 409.876 135.472L293.282 183.773ZM368.27 227.042C342.813 241.995 313.805 249.993 283.615 249.993C253.388 249.993 224.347 241.976 198.868 226.988C196.335 225.498 193.075 226.343 191.585 228.876C190.095 231.408 190.94 234.669 193.473 236.158C220.576 252.102 251.478 260.633 283.615 260.633C315.713 260.633 346.579 252.123 373.659 236.216C376.192 234.728 377.04 231.468 375.551 228.934C374.063 226.401 370.803 225.553 368.27 227.042Z" fill="black"/>
<path d="M405.588 126.504V203.455C405.588 206.393 407.97 208.775 410.908 208.775C413.847 208.775 416.228 206.393 416.228 203.455V126.504C416.228 123.566 413.847 121.184 410.908 121.184C407.97 121.184 405.588 123.566 405.588 126.504Z" fill="black"/>
</g>
<defs>
<clipPath id="clip0_3_68">
<rect width="266" height="266" fill="white" transform="translate(150 27)"/>
</clipPath>
</defs>
</svg>
