<svg width="566" height="566" viewBox="0 0 566 566" fill="none" xmlns="http://www.w3.org/2000/svg">
<rect width="566" height="566" rx="20" fill="#DAF7F4"/>
<path d="M219.451 361H227.451V417H219.451V361ZM187.291 417H179.291V361H187.291V417ZM220.171 392.04H186.491V385.08H220.171V392.04ZM261.253 417.48C256.986 417.48 253.199 416.547 249.893 414.68C246.586 412.813 243.973 410.253 242.053 407C240.133 403.693 239.173 399.96 239.173 395.8C239.173 391.587 240.133 387.853 242.053 384.6C243.973 381.347 246.586 378.813 249.893 377C253.199 375.133 256.986 374.2 261.253 374.2C265.466 374.2 269.226 375.133 272.533 377C275.893 378.813 278.506 381.347 280.373 384.6C282.293 387.8 283.253 391.533 283.253 395.8C283.253 400.013 282.293 403.747 280.373 407C278.506 410.253 275.893 412.813 272.533 414.68C269.226 416.547 265.466 417.48 261.253 417.48ZM261.253 410.76C263.973 410.76 266.399 410.147 268.533 408.92C270.719 407.693 272.426 405.96 273.653 403.72C274.879 401.427 275.493 398.787 275.493 395.8C275.493 392.76 274.879 390.147 273.653 387.96C272.426 385.72 270.719 383.987 268.533 382.76C266.399 381.533 263.973 380.92 261.253 380.92C258.533 380.92 256.106 381.533 253.973 382.76C251.839 383.987 250.133 385.72 248.853 387.96C247.573 390.147 246.933 392.76 246.933 395.8C246.933 398.787 247.573 401.427 248.853 403.72C250.133 405.96 251.839 407.693 253.973 408.92C256.106 410.147 258.533 410.76 261.253 410.76ZM346.914 374.2C350.327 374.2 353.34 374.867 355.954 376.2C358.567 377.533 360.594 379.56 362.034 382.28C363.527 385 364.274 388.44 364.274 392.6V417H356.594V393.48C356.594 389.373 355.634 386.28 353.714 384.2C351.794 382.12 349.1 381.08 345.634 381.08C343.074 381.08 340.834 381.613 338.914 382.68C336.994 383.747 335.5 385.32 334.434 387.4C333.42 389.48 332.914 392.067 332.914 395.16V417H325.234V393.48C325.234 389.373 324.274 386.28 322.354 384.2C320.487 382.12 317.794 381.08 314.274 381.08C311.767 381.08 309.554 381.613 307.634 382.68C305.714 383.747 304.22 385.32 303.154 387.4C302.087 389.48 301.554 392.067 301.554 395.16V417H293.874V374.6H301.234V385.88L300.034 383C301.367 380.227 303.42 378.067 306.194 376.52C308.967 374.973 312.194 374.2 315.874 374.2C319.927 374.2 323.42 375.213 326.354 377.24C329.287 379.213 331.207 382.227 332.114 386.28L328.994 385C330.274 381.747 332.514 379.133 335.714 377.16C338.914 375.187 342.647 374.2 346.914 374.2ZM397.285 417.48C392.752 417.48 388.752 416.547 385.285 414.68C381.872 412.813 379.205 410.253 377.285 407C375.418 403.747 374.485 400.013 374.485 395.8C374.485 391.587 375.392 387.853 377.205 384.6C379.072 381.347 381.605 378.813 384.805 377C388.058 375.133 391.712 374.2 395.765 374.2C399.872 374.2 403.498 375.107 406.645 376.92C409.792 378.733 412.245 381.293 414.005 384.6C415.818 387.853 416.725 391.667 416.725 396.04C416.725 396.36 416.698 396.733 416.645 397.16C416.645 397.587 416.618 397.987 416.565 398.36H380.485V392.84H412.565L409.445 394.76C409.498 392.04 408.938 389.613 407.765 387.48C406.592 385.347 404.965 383.693 402.885 382.52C400.858 381.293 398.485 380.68 395.765 380.68C393.098 380.68 390.725 381.293 388.645 382.52C386.565 383.693 384.938 385.373 383.765 387.56C382.592 389.693 382.005 392.147 382.005 394.92V396.2C382.005 399.027 382.645 401.56 383.925 403.8C385.258 405.987 387.098 407.693 389.445 408.92C391.792 410.147 394.485 410.76 397.525 410.76C400.032 410.76 402.298 410.333 404.325 409.48C406.405 408.627 408.218 407.347 409.765 405.64L414.005 410.6C412.085 412.84 409.685 414.547 406.805 415.72C403.978 416.893 400.805 417.48 397.285 417.48ZM204.095 515V459H212.095V508.04H242.415V515H204.095ZM268.088 515.48C263.822 515.48 260.035 514.547 256.728 512.68C253.422 510.813 250.808 508.253 248.888 505C246.968 501.693 246.008 497.96 246.008 493.8C246.008 489.587 246.968 485.853 248.888 482.6C250.808 479.347 253.422 476.813 256.728 475C260.035 473.133 263.822 472.2 268.088 472.2C272.302 472.2 276.062 473.133 279.368 475C282.728 476.813 285.342 479.347 287.208 482.6C289.128 485.8 290.088 489.533 290.088 493.8C290.088 498.013 289.128 501.747 287.208 505C285.342 508.253 282.728 510.813 279.368 512.68C276.062 514.547 272.302 515.48 268.088 515.48ZM268.088 508.76C270.808 508.76 273.235 508.147 275.368 506.92C277.555 505.693 279.262 503.96 280.488 501.72C281.715 499.427 282.328 496.787 282.328 493.8C282.328 490.76 281.715 488.147 280.488 485.96C279.262 483.72 277.555 481.987 275.368 480.76C273.235 479.533 270.808 478.92 268.088 478.92C265.368 478.92 262.942 479.533 260.808 480.76C258.675 481.987 256.968 483.72 255.688 485.96C254.408 488.147 253.768 490.76 253.768 493.8C253.768 496.787 254.408 499.427 255.688 501.72C256.968 503.96 258.675 505.693 260.808 506.92C262.942 508.147 265.368 508.76 268.088 508.76ZM326.639 515V506.04L326.239 504.36V489.08C326.239 485.827 325.279 483.32 323.359 481.56C321.492 479.747 318.666 478.84 314.879 478.84C312.372 478.84 309.919 479.267 307.519 480.12C305.119 480.92 303.092 482.013 301.439 483.4L298.239 477.64C300.426 475.88 303.039 474.547 306.079 473.64C309.172 472.68 312.399 472.2 315.759 472.2C321.572 472.2 326.052 473.613 329.199 476.44C332.346 479.267 333.919 483.587 333.919 489.4V515H326.639ZM312.719 515.48C309.572 515.48 306.799 514.947 304.399 513.88C302.052 512.813 300.239 511.347 298.959 509.48C297.679 507.56 297.039 505.4 297.039 503C297.039 500.707 297.572 498.627 298.639 496.76C299.759 494.893 301.546 493.4 303.999 492.28C306.506 491.16 309.866 490.6 314.079 490.6H327.519V496.12H314.399C310.559 496.12 307.972 496.76 306.639 498.04C305.306 499.32 304.639 500.867 304.639 502.68C304.639 504.76 305.466 506.44 307.119 507.72C308.772 508.947 311.066 509.56 313.999 509.56C316.879 509.56 319.386 508.92 321.519 507.64C323.706 506.36 325.279 504.493 326.239 502.04L327.759 507.32C326.746 509.827 324.959 511.827 322.399 513.32C319.839 514.76 316.612 515.48 312.719 515.48ZM370.772 472.2C374.238 472.2 377.278 472.867 379.892 474.2C382.558 475.533 384.638 477.56 386.132 480.28C387.625 483 388.372 486.44 388.372 490.6V515H380.692V491.48C380.692 487.373 379.678 484.28 377.652 482.2C375.678 480.12 372.878 479.08 369.252 479.08C366.532 479.08 364.158 479.613 362.132 480.68C360.105 481.747 358.532 483.32 357.412 485.4C356.345 487.48 355.812 490.067 355.812 493.16V515H348.132V472.6H355.492V484.04L354.292 481C355.678 478.227 357.812 476.067 360.692 474.52C363.572 472.973 366.932 472.2 370.772 472.2Z" fill="black"/>
<g clip-path="url(#clip0_2_52)">
<path d="M278.347 137.976C276.476 137.976 274.964 139.492 274.964 141.359V183.65C274.964 185.517 276.476 187.033 278.347 187.033H379.844C381.715 187.033 383.227 185.517 383.227 183.65V141.359C383.227 139.492 381.715 137.976 379.844 137.976C377.973 137.976 376.461 139.492 376.461 141.359V180.266H329.096V136.284C329.096 134.417 327.584 132.901 325.713 132.901H298.647C296.776 132.901 295.264 134.417 295.264 136.284V180.266H281.731V141.359C281.73 139.492 280.218 137.976 278.347 137.976ZM302.03 139.668H322.329V156.584H318.946C317.075 156.584 315.563 158.1 315.563 159.967C315.563 161.834 317.075 163.35 318.946 163.35H322.329V180.266H302.03V139.668Z" fill="black"/>
<path d="M270.285 136.027C270.705 136.2 271.144 136.284 271.581 136.284C272.46 136.284 273.326 135.94 273.973 135.293L329.106 80.1634L384.219 135.293C385.19 136.264 386.645 136.555 387.907 136.028C389.169 135.503 389.994 134.268 389.994 132.901V82.1529C389.994 80.2855 388.482 78.7698 386.611 78.7698H352.779C350.908 78.7698 349.396 80.2855 349.396 82.1529C349.396 84.0203 350.908 85.536 352.779 85.536H383.228V124.731L331.508 72.9944C330.239 71.7256 327.973 71.7256 326.704 72.9944L274.964 124.734V85.536H291.881C293.751 85.536 295.264 84.0203 295.264 82.1529V78.7698H302.03V82.1529C302.03 84.0203 303.542 85.536 305.413 85.536C307.284 85.536 308.796 84.0203 308.796 82.1529V75.3863C308.796 73.5189 307.284 72.0032 305.413 72.0032H291.881C290.01 72.0032 288.497 73.5189 288.497 75.3863V78.7694H271.581C269.71 78.7694 268.198 80.2851 268.198 82.1525V132.901C268.198 134.268 269.02 135.503 270.285 136.027Z" fill="black"/>
<path d="M359.545 166.734C361.416 166.734 362.928 165.218 362.928 163.35V136.284C362.928 134.417 361.416 132.901 359.545 132.901H339.246C337.375 132.901 335.862 134.417 335.862 136.284V163.35C335.862 165.218 337.375 166.734 339.246 166.734H359.545ZM342.629 139.668H356.161V159.967H342.629V139.668Z" fill="black"/>
<path d="M203.916 253.006C203.916 250.208 201.639 247.931 198.841 247.931C196.044 247.931 193.767 250.208 193.767 253.006C193.767 255.804 196.044 258.081 198.841 258.081C201.639 258.081 203.916 255.804 203.916 253.006Z" fill="black"/>
<path d="M388.181 214.099C384.449 207.634 376.143 205.421 369.908 209.034L330.966 227.987C324.914 231.015 318.804 231.015 305.413 231.015C292.323 231.015 272.338 227.71 272.135 227.679C270.295 227.375 268.549 228.617 268.245 230.457C267.937 232.301 269.182 234.047 271.026 234.351C271.865 234.493 291.758 237.782 305.413 237.782C319.46 237.782 326.511 237.782 333.961 234.057L373.077 215.006C374.64 214.103 376.46 213.863 378.213 214.329C379.956 214.8 381.417 215.92 382.317 217.483C383.224 219.049 383.464 220.872 382.997 222.618C382.53 224.364 381.41 225.822 379.749 226.783L334.005 255.253C333.91 255.318 324.149 261.465 302.03 261.465C282.85 261.465 253.22 245.137 252.793 244.904C252.485 244.755 245.151 241.165 230.982 241.165C229.111 241.165 227.599 242.681 227.599 244.549C227.599 246.416 229.111 247.932 230.982 247.932C243.287 247.932 249.627 250.892 249.64 250.892V250.889C250.919 251.599 281.094 268.231 302.03 268.231C326.457 268.231 337.29 261.194 337.649 260.954L383.227 232.585C386.357 230.779 388.597 227.859 389.531 224.371C390.471 220.876 389.987 217.228 388.181 214.099Z" fill="black"/>
<path d="M230.982 200.566H258.048C261.996 200.566 268.705 205.6 274.626 210.039C282.048 215.608 289.062 220.865 295.263 220.865H315.563C320.702 220.865 323.253 223.196 323.32 223.257C323.98 223.917 324.846 224.248 325.712 224.248C326.579 224.248 327.445 223.917 328.104 223.257C329.427 221.934 329.427 219.796 328.104 218.473C327.658 218.027 323.503 214.099 315.563 214.099H295.263C291.315 214.099 284.606 209.064 278.686 204.626C271.263 199.057 264.249 193.799 258.048 193.799H230.982C229.111 193.799 227.599 195.315 227.599 197.182C227.599 199.05 229.111 200.566 230.982 200.566Z" fill="black"/>
<path d="M210.683 180.266H190.383C188.512 180.266 187 181.782 187 183.649C187 185.517 188.512 187.033 190.383 187.033H210.683C212.55 187.033 214.066 188.551 214.066 190.416V264.847C214.066 266.711 212.55 268.23 210.683 268.23H190.383C188.512 268.23 187 269.746 187 271.613C187 273.48 188.512 274.996 190.383 274.996H210.683C216.278 274.996 220.832 270.442 220.832 264.846V190.416C220.832 184.82 216.278 180.266 210.683 180.266Z" fill="black"/>
</g>
<defs>
<clipPath id="clip0_2_52">
<rect width="203" height="203" fill="white" transform="translate(187 72)"/>
</clipPath>
</defs>
</svg>
