<svg width="566" height="566" viewBox="0 0 566 566" fill="none" xmlns="http://www.w3.org/2000/svg">
<rect width="566" height="566" rx="20" fill="#DAF7F4"/>
<path d="M76.7828 417V361H84.7828V417H76.7828ZM123.068 374.2C126.535 374.2 129.575 374.867 132.188 376.2C134.855 377.533 136.935 379.56 138.428 382.28C139.922 385 140.668 388.44 140.668 392.6V417H132.988V393.48C132.988 389.373 131.975 386.28 129.948 384.2C127.975 382.12 125.175 381.08 121.548 381.08C118.828 381.08 116.455 381.613 114.428 382.68C112.402 383.747 110.828 385.32 109.708 387.4C108.642 389.48 108.108 392.067 108.108 395.16V417H100.428V374.6H107.788V386.04L106.588 383C107.975 380.227 110.108 378.067 112.988 376.52C115.868 374.973 119.228 374.2 123.068 374.2ZM165.22 417L146.66 374.6H154.66L171.14 413H167.3L184.1 374.6H191.62L173.06 417H165.22ZM216.496 417.48C211.963 417.48 207.963 416.547 204.496 414.68C201.083 412.813 198.416 410.253 196.496 407C194.629 403.747 193.696 400.013 193.696 395.8C193.696 391.587 194.603 387.853 196.416 384.6C198.283 381.347 200.816 378.813 204.016 377C207.269 375.133 210.923 374.2 214.976 374.2C219.083 374.2 222.709 375.107 225.856 376.92C229.003 378.733 231.456 381.293 233.216 384.6C235.029 387.853 235.936 391.667 235.936 396.04C235.936 396.36 235.909 396.733 235.856 397.16C235.856 397.587 235.829 397.987 235.776 398.36H199.696V392.84H231.776L228.656 394.76C228.709 392.04 228.149 389.613 226.976 387.48C225.803 385.347 224.176 383.693 222.096 382.52C220.069 381.293 217.696 380.68 214.976 380.68C212.309 380.68 209.936 381.293 207.856 382.52C205.776 383.693 204.149 385.373 202.976 387.56C201.803 389.693 201.216 392.147 201.216 394.92V396.2C201.216 399.027 201.856 401.56 203.136 403.8C204.469 405.987 206.309 407.693 208.656 408.92C211.003 410.147 213.696 410.76 216.736 410.76C219.243 410.76 221.509 410.333 223.536 409.48C225.616 408.627 227.429 407.347 228.976 405.64L233.216 410.6C231.296 412.84 228.896 414.547 226.016 415.72C223.189 416.893 220.016 417.48 216.496 417.48ZM258.76 417.48C255.24 417.48 251.88 417 248.68 416.04C245.534 415.08 243.054 413.907 241.24 412.52L244.44 406.44C246.254 407.667 248.494 408.707 251.16 409.56C253.827 410.413 256.547 410.84 259.32 410.84C262.894 410.84 265.454 410.333 267 409.32C268.6 408.307 269.4 406.893 269.4 405.08C269.4 403.747 268.92 402.707 267.96 401.96C267 401.213 265.72 400.653 264.12 400.28C262.574 399.907 260.84 399.587 258.92 399.32C257 399 255.08 398.627 253.16 398.2C251.24 397.72 249.48 397.08 247.88 396.28C246.28 395.427 245 394.28 244.04 392.84C243.08 391.347 242.6 389.373 242.6 386.92C242.6 384.36 243.32 382.12 244.76 380.2C246.2 378.28 248.227 376.813 250.84 375.8C253.507 374.733 256.654 374.2 260.28 374.2C263.054 374.2 265.854 374.547 268.68 375.24C271.56 375.88 273.907 376.813 275.72 378.04L272.44 384.12C270.52 382.84 268.52 381.96 266.44 381.48C264.36 381 262.28 380.76 260.2 380.76C256.84 380.76 254.334 381.32 252.68 382.44C251.027 383.507 250.2 384.893 250.2 386.6C250.2 388.04 250.68 389.16 251.64 389.96C252.654 390.707 253.934 391.293 255.48 391.72C257.08 392.147 258.84 392.52 260.76 392.84C262.68 393.107 264.6 393.48 266.52 393.96C268.44 394.387 270.174 395 271.72 395.8C273.32 396.6 274.6 397.72 275.56 399.16C276.574 400.6 277.08 402.52 277.08 404.92C277.08 407.48 276.334 409.693 274.84 411.56C273.347 413.427 271.24 414.893 268.52 415.96C265.8 416.973 262.547 417.48 258.76 417.48ZM301.238 417.48C296.972 417.48 293.665 416.333 291.318 414.04C288.972 411.747 287.798 408.467 287.798 404.2V365.32H295.478V403.88C295.478 406.173 296.038 407.933 297.158 409.16C298.332 410.387 299.985 411 302.118 411C304.518 411 306.518 410.333 308.118 409L310.518 414.52C309.345 415.533 307.932 416.28 306.278 416.76C304.678 417.24 302.998 417.48 301.238 417.48ZM280.598 380.92V374.6H307.638V380.92H280.598ZM372.843 374.2C376.257 374.2 379.27 374.867 381.883 376.2C384.497 377.533 386.523 379.56 387.963 382.28C389.457 385 390.203 388.44 390.203 392.6V417H382.523V393.48C382.523 389.373 381.563 386.28 379.643 384.2C377.723 382.12 375.03 381.08 371.563 381.08C369.003 381.08 366.763 381.613 364.843 382.68C362.923 383.747 361.43 385.32 360.363 387.4C359.35 389.48 358.843 392.067 358.843 395.16V417H351.163V393.48C351.163 389.373 350.203 386.28 348.283 384.2C346.417 382.12 343.723 381.08 340.203 381.08C337.697 381.08 335.483 381.613 333.563 382.68C331.643 383.747 330.15 385.32 329.083 387.4C328.017 389.48 327.483 392.067 327.483 395.16V417H319.803V374.6H327.163V385.88L325.963 383C327.297 380.227 329.35 378.067 332.123 376.52C334.897 374.973 338.123 374.2 341.803 374.2C345.857 374.2 349.35 375.213 352.283 377.24C355.217 379.213 357.137 382.227 358.043 386.28L354.923 385C356.203 381.747 358.443 379.133 361.643 377.16C364.843 375.187 368.577 374.2 372.843 374.2ZM423.215 417.48C418.681 417.48 414.681 416.547 411.215 414.68C407.801 412.813 405.135 410.253 403.215 407C401.348 403.747 400.415 400.013 400.415 395.8C400.415 391.587 401.321 387.853 403.135 384.6C405.001 381.347 407.535 378.813 410.735 377C413.988 375.133 417.641 374.2 421.695 374.2C425.801 374.2 429.428 375.107 432.575 376.92C435.721 378.733 438.175 381.293 439.935 384.6C441.748 387.853 442.655 391.667 442.655 396.04C442.655 396.36 442.628 396.733 442.575 397.16C442.575 397.587 442.548 397.987 442.495 398.36H406.415V392.84H438.495L435.375 394.76C435.428 392.04 434.868 389.613 433.695 387.48C432.521 385.347 430.895 383.693 428.815 382.52C426.788 381.293 424.415 380.68 421.695 380.68C419.028 380.68 416.655 381.293 414.575 382.52C412.495 383.693 410.868 385.373 409.695 387.56C408.521 389.693 407.935 392.147 407.935 394.92V396.2C407.935 399.027 408.575 401.56 409.855 403.8C411.188 405.987 413.028 407.693 415.375 408.92C417.721 410.147 420.415 410.76 423.455 410.76C425.961 410.76 428.228 410.333 430.255 409.48C432.335 408.627 434.148 407.347 435.695 405.64L439.935 410.6C438.015 412.84 435.615 414.547 432.735 415.72C429.908 416.893 426.735 417.48 423.215 417.48ZM475.959 374.2C479.426 374.2 482.466 374.867 485.079 376.2C487.746 377.533 489.826 379.56 491.319 382.28C492.812 385 493.559 388.44 493.559 392.6V417H485.879V393.48C485.879 389.373 484.866 386.28 482.839 384.2C480.866 382.12 478.066 381.08 474.439 381.08C471.719 381.08 469.346 381.613 467.319 382.68C465.292 383.747 463.719 385.32 462.599 387.4C461.532 389.48 460.999 392.067 460.999 395.16V417H453.319V374.6H460.679V386.04L459.479 383C460.866 380.227 462.999 378.067 465.879 376.52C468.759 374.973 472.119 374.2 475.959 374.2ZM522.332 417.48C518.066 417.48 514.759 416.333 512.412 414.04C510.066 411.747 508.892 408.467 508.892 404.2V365.32H516.572V403.88C516.572 406.173 517.132 407.933 518.252 409.16C519.426 410.387 521.079 411 523.212 411C525.612 411 527.612 410.333 529.212 409L531.612 414.52C530.439 415.533 529.026 416.28 527.372 416.76C525.772 417.24 524.092 417.48 522.332 417.48ZM501.692 380.92V374.6H528.732V380.92H501.692ZM209.595 515V459H217.595V508.04H247.915V515H209.595ZM273.588 515.48C269.322 515.48 265.535 514.547 262.228 512.68C258.922 510.813 256.308 508.253 254.388 505C252.468 501.693 251.508 497.96 251.508 493.8C251.508 489.587 252.468 485.853 254.388 482.6C256.308 479.347 258.922 476.813 262.228 475C265.535 473.133 269.322 472.2 273.588 472.2C277.802 472.2 281.562 473.133 284.868 475C288.228 476.813 290.842 479.347 292.708 482.6C294.628 485.8 295.588 489.533 295.588 493.8C295.588 498.013 294.628 501.747 292.708 505C290.842 508.253 288.228 510.813 284.868 512.68C281.562 514.547 277.802 515.48 273.588 515.48ZM273.588 508.76C276.308 508.76 278.735 508.147 280.868 506.92C283.055 505.693 284.762 503.96 285.988 501.72C287.215 499.427 287.828 496.787 287.828 493.8C287.828 490.76 287.215 488.147 285.988 485.96C284.762 483.72 283.055 481.987 280.868 480.76C278.735 479.533 276.308 478.92 273.588 478.92C270.868 478.92 268.442 479.533 266.308 480.76C264.175 481.987 262.468 483.72 261.188 485.96C259.908 488.147 259.268 490.76 259.268 493.8C259.268 496.787 259.908 499.427 261.188 501.72C262.468 503.96 264.175 505.693 266.308 506.92C268.442 508.147 270.868 508.76 273.588 508.76ZM332.139 515V506.04L331.739 504.36V489.08C331.739 485.827 330.779 483.32 328.859 481.56C326.992 479.747 324.166 478.84 320.379 478.84C317.872 478.84 315.419 479.267 313.019 480.12C310.619 480.92 308.592 482.013 306.939 483.4L303.739 477.64C305.926 475.88 308.539 474.547 311.579 473.64C314.672 472.68 317.899 472.2 321.259 472.2C327.072 472.2 331.552 473.613 334.699 476.44C337.846 479.267 339.419 483.587 339.419 489.4V515H332.139ZM318.219 515.48C315.072 515.48 312.299 514.947 309.899 513.88C307.552 512.813 305.739 511.347 304.459 509.48C303.179 507.56 302.539 505.4 302.539 503C302.539 500.707 303.072 498.627 304.139 496.76C305.259 494.893 307.046 493.4 309.499 492.28C312.006 491.16 315.366 490.6 319.579 490.6H333.019V496.12H319.899C316.059 496.12 313.472 496.76 312.139 498.04C310.806 499.32 310.139 500.867 310.139 502.68C310.139 504.76 310.966 506.44 312.619 507.72C314.272 508.947 316.566 509.56 319.499 509.56C322.379 509.56 324.886 508.92 327.019 507.64C329.206 506.36 330.779 504.493 331.739 502.04L333.259 507.32C332.246 509.827 330.459 511.827 327.899 513.32C325.339 514.76 322.112 515.48 318.219 515.48ZM376.272 472.2C379.738 472.2 382.778 472.867 385.392 474.2C388.058 475.533 390.138 477.56 391.632 480.28C393.125 483 393.872 486.44 393.872 490.6V515H386.192V491.48C386.192 487.373 385.178 484.28 383.152 482.2C381.178 480.12 378.378 479.08 374.752 479.08C372.032 479.08 369.658 479.613 367.632 480.68C365.605 481.747 364.032 483.32 362.912 485.4C361.845 487.48 361.312 490.067 361.312 493.16V515H353.632V472.6H360.992V484.04L359.792 481C361.178 478.227 363.312 476.067 366.192 474.52C369.072 472.973 372.432 472.2 376.272 472.2Z" fill="black"/>
<g clip-path="url(#clip0_2_64)">
<path d="M189.803 247.058V253.038V264.999H231.666V253.038V247.058V235.097H189.803V247.058ZM195.784 241.077H225.686V247.058H195.784V241.077ZM195.784 253.038H225.686V259.018H195.784V253.038Z" fill="black"/>
<path d="M237.646 235.097V241.077V247.058V253.038V264.999H279.509V253.038V247.058V241.077V235.097V223.136H237.646V235.097ZM243.627 229.116H273.529V235.097H243.627V229.116ZM243.627 241.077H273.529V247.058H243.627V241.077ZM243.627 253.038H273.529V259.018H243.627V253.038Z" fill="black"/>
<path d="M285.49 223.136V229.117V235.097V241.078V247.058V253.039V265H327.354V253.039V247.058V241.077V235.097V229.116V223.136V211.174H285.49V223.136ZM291.47 217.156H321.372V223.136H291.47V217.156ZM291.47 229.116H321.372V235.097H291.47V229.116ZM291.47 241.077H321.372V247.058H291.47V241.077ZM291.47 253.038H321.372V259.018H291.47V253.038Z" fill="black"/>
<path d="M333.334 199.213V199.214V211.175V217.156V223.136V229.117V235.097V241.078V247.058V253.039V265H375.197V253.039V247.058V241.077V235.097V229.116V223.136V217.155V211.174V199.213H333.334ZM339.314 205.195H369.216V211.175H339.314V205.195ZM369.216 259.018H339.314V253.038H369.216V259.018ZM369.216 247.058H339.314V241.077H369.216V247.058ZM369.216 235.097H339.314V229.116H369.216V235.097ZM369.216 223.136H339.314V217.156H369.216V223.136Z" fill="black"/>
<path d="M351.275 193.234H357.255C357.255 178.394 345.184 166.322 330.343 166.322C317.025 166.322 305.937 176.047 303.802 188.767C298.877 182.395 291.16 178.283 282.5 178.283C269.181 178.283 258.093 188.008 255.958 200.728C251.033 194.356 243.316 190.244 234.656 190.244C219.816 190.244 207.744 202.316 207.744 217.156H213.725C213.725 205.617 223.117 196.225 234.656 196.225C246.195 196.225 255.587 205.617 255.587 217.156H261.568V205.195C261.568 193.656 270.96 184.264 282.499 184.264C294.038 184.264 303.43 193.656 303.43 205.195H309.411V193.234C309.411 181.695 318.803 172.303 330.342 172.303C341.881 172.303 351.275 181.694 351.275 193.234Z" fill="black"/>
<path d="M213.725 223.136H207.744V229.117H213.725V223.136Z" fill="black"/>
<path d="M345.295 106.517H339.314V160.341H345.295V106.517Z" fill="black"/>
<path d="M354.265 87.1919L369.937 105.474L374.476 101.581L354.265 78L334.054 101.581L338.593 105.474L354.265 87.1919Z" fill="black"/>
<path d="M369.216 106.517H363.235V160.341H369.216V106.517Z" fill="black"/>
<path d="M357.255 142.4H351.275V148.381H357.255V142.4Z" fill="black"/>
<path d="M357.255 100.537H351.275V136.42H357.255V100.537Z" fill="black"/>
<path d="M357.255 154.361H351.275V160.342H357.255V154.361Z" fill="black"/>
<path d="M357.255 166.322H351.275V172.302H357.255V166.322Z" fill="black"/>
<path d="M231.666 136.42C257.923 136.42 269.489 120.894 269.971 120.234L271.242 118.479L269.968 116.723C269.489 116.063 257.923 100.538 231.666 100.538C205.409 100.538 193.843 116.063 193.362 116.723L192.091 118.479L193.365 120.234C193.843 120.895 205.409 136.42 231.666 136.42ZM263.583 118.467C261.116 120.984 255.62 125.613 246.653 128.319C248.516 125.49 249.607 122.111 249.607 118.479C249.607 114.833 248.507 111.442 246.632 108.608C255.647 111.299 261.119 115.931 263.583 118.467ZM231.666 106.517C238.263 106.517 243.627 111.882 243.627 118.479C243.627 125.075 238.263 130.44 231.666 130.44C225.07 130.44 219.706 125.075 219.706 118.479C219.706 111.882 225.07 106.517 231.666 106.517ZM216.679 108.637C214.816 111.466 213.725 114.845 213.725 118.478C213.725 122.123 214.825 125.514 216.7 128.349C207.684 125.657 202.213 121.025 199.748 118.49C202.215 115.972 207.711 111.344 216.679 108.637Z" fill="black"/>
<path d="M234.656 79.6057H228.675V91.5667H234.656V79.6057Z" fill="black"/>
<path d="M213.224 92.9011L207.242 83.928L202.265 87.2454L208.247 96.2185L213.224 92.9011Z" fill="black"/>
<path d="M261.068 87.2445L256.091 83.9271L250.11 92.9002L255.086 96.2176L261.068 87.2445Z" fill="black"/>
<path d="M234.656 145.39H228.675V157.351H234.656V145.39Z" fill="black"/>
<path d="M256.087 153.033L261.063 149.715L255.081 140.742L250.105 144.06L256.087 153.033Z" fill="black"/>
<path d="M207.24 153.028L213.222 144.055L208.245 140.738L202.264 149.711L207.24 153.028Z" fill="black"/>
</g>
<defs>
<clipPath id="clip0_2_64">
<rect width="187" height="187" fill="white" transform="translate(189 78)"/>
</clipPath>
</defs>
</svg>
