<svg width="566" height="566" viewBox="0 0 566 566" fill="none" xmlns="http://www.w3.org/2000/svg">
<rect width="566" height="566" rx="20" fill="#DAF7F4"/>
<path d="M150.338 417V361H156.898L182.018 403.32H178.498L203.298 361H209.858L209.938 417H202.258L202.178 373.08H204.018L181.938 410.2H178.258L156.018 373.08H158.018V417H150.338ZM244.504 417.48C239.97 417.48 235.97 416.547 232.504 414.68C229.09 412.813 226.424 410.253 224.504 407C222.637 403.747 221.704 400.013 221.704 395.8C221.704 391.587 222.61 387.853 224.424 384.6C226.29 381.347 228.824 378.813 232.024 377C235.277 375.133 238.93 374.2 242.984 374.2C247.09 374.2 250.717 375.107 253.864 376.92C257.01 378.733 259.464 381.293 261.224 384.6C263.037 387.853 263.944 391.667 263.944 396.04C263.944 396.36 263.917 396.733 263.864 397.16C263.864 397.587 263.837 397.987 263.784 398.36H227.704V392.84H259.784L256.664 394.76C256.717 392.04 256.157 389.613 254.984 387.48C253.81 385.347 252.184 383.693 250.104 382.52C248.077 381.293 245.704 380.68 242.984 380.68C240.317 380.68 237.944 381.293 235.864 382.52C233.784 383.693 232.157 385.373 230.984 387.56C229.81 389.693 229.224 392.147 229.224 394.92V396.2C229.224 399.027 229.864 401.56 231.144 403.8C232.477 405.987 234.317 407.693 236.664 408.92C239.01 410.147 241.704 410.76 244.744 410.76C247.25 410.76 249.517 410.333 251.544 409.48C253.624 408.627 255.437 407.347 256.984 405.64L261.224 410.6C259.304 412.84 256.904 414.547 254.024 415.72C251.197 416.893 248.024 417.48 244.504 417.48ZM292.128 417.48C288.021 417.48 284.341 416.573 281.088 414.76C277.888 412.947 275.355 410.413 273.488 407.16C271.621 403.907 270.688 400.12 270.688 395.8C270.688 391.48 271.621 387.72 273.488 384.52C275.355 381.267 277.888 378.733 281.088 376.92C284.341 375.107 288.021 374.2 292.128 374.2C295.701 374.2 298.928 375 301.808 376.6C304.688 378.2 306.981 380.6 308.688 383.8C310.448 387 311.328 391 311.328 395.8C311.328 400.6 310.475 404.6 308.768 407.8C307.115 411 304.848 413.427 301.968 415.08C299.088 416.68 295.808 417.48 292.128 417.48ZM292.768 410.76C295.435 410.76 297.835 410.147 299.968 408.92C302.155 407.693 303.861 405.96 305.088 403.72C306.368 401.427 307.008 398.787 307.008 395.8C307.008 392.76 306.368 390.147 305.088 387.96C303.861 385.72 302.155 383.987 299.968 382.76C297.835 381.533 295.435 380.92 292.768 380.92C290.048 380.92 287.621 381.533 285.488 382.76C283.355 383.987 281.648 385.72 280.368 387.96C279.088 390.147 278.448 392.76 278.448 395.8C278.448 398.787 279.088 401.427 280.368 403.72C281.648 405.96 283.355 407.693 285.488 408.92C287.621 410.147 290.048 410.76 292.768 410.76ZM307.248 417V405.56L307.728 395.72L306.928 385.88V357.64H314.608V417H307.248ZM329.139 417V374.6H336.819V417H329.139ZM332.979 366.44C331.486 366.44 330.233 365.96 329.219 365C328.259 364.04 327.779 362.867 327.779 361.48C327.779 360.04 328.259 358.84 329.219 357.88C330.233 356.92 331.486 356.44 332.979 356.44C334.473 356.44 335.699 356.92 336.659 357.88C337.673 358.787 338.179 359.933 338.179 361.32C338.179 362.76 337.699 363.987 336.739 365C335.779 365.96 334.526 366.44 332.979 366.44ZM369.963 417.48C365.643 417.48 361.776 416.547 358.363 414.68C355.003 412.813 352.363 410.253 350.443 407C348.523 403.747 347.563 400.013 347.563 395.8C347.563 391.587 348.523 387.853 350.443 384.6C352.363 381.347 355.003 378.813 358.363 377C361.776 375.133 365.643 374.2 369.963 374.2C373.803 374.2 377.216 374.973 380.203 376.52C383.243 378.013 385.59 380.253 387.243 383.24L381.403 387C380.016 384.92 378.31 383.4 376.283 382.44C374.31 381.427 372.176 380.92 369.883 380.92C367.11 380.92 364.63 381.533 362.443 382.76C360.256 383.987 358.523 385.72 357.243 387.96C355.963 390.147 355.323 392.76 355.323 395.8C355.323 398.84 355.963 401.48 357.243 403.72C358.523 405.96 360.256 407.693 362.443 408.92C364.63 410.147 367.11 410.76 369.883 410.76C372.176 410.76 374.31 410.28 376.283 409.32C378.31 408.307 380.016 406.76 381.403 404.68L387.243 408.36C385.59 411.293 383.243 413.56 380.203 415.16C377.216 416.707 373.803 417.48 369.963 417.48ZM423.506 417V408.04L423.106 406.36V391.08C423.106 387.827 422.146 385.32 420.226 383.56C418.36 381.747 415.533 380.84 411.746 380.84C409.24 380.84 406.786 381.267 404.386 382.12C401.986 382.92 399.96 384.013 398.306 385.4L395.106 379.64C397.293 377.88 399.906 376.547 402.946 375.64C406.04 374.68 409.266 374.2 412.626 374.2C418.44 374.2 422.92 375.613 426.066 378.44C429.213 381.267 430.786 385.587 430.786 391.4V417H423.506ZM409.586 417.48C406.44 417.48 403.666 416.947 401.266 415.88C398.92 414.813 397.106 413.347 395.826 411.48C394.546 409.56 393.906 407.4 393.906 405C393.906 402.707 394.44 400.627 395.506 398.76C396.626 396.893 398.413 395.4 400.866 394.28C403.373 393.16 406.733 392.6 410.946 392.6H424.386V398.12H411.266C407.426 398.12 404.84 398.76 403.506 400.04C402.173 401.32 401.506 402.867 401.506 404.68C401.506 406.76 402.333 408.44 403.986 409.72C405.64 410.947 407.933 411.56 410.866 411.56C413.746 411.56 416.253 410.92 418.386 409.64C420.573 408.36 422.146 406.493 423.106 404.04L424.626 409.32C423.613 411.827 421.826 413.827 419.266 415.32C416.706 416.76 413.48 417.48 409.586 417.48ZM444.999 417V357.64H452.679V417H444.999ZM209.595 515V459H217.595V508.04H247.915V515H209.595ZM273.588 515.48C269.322 515.48 265.535 514.547 262.228 512.68C258.922 510.813 256.308 508.253 254.388 505C252.468 501.693 251.508 497.96 251.508 493.8C251.508 489.587 252.468 485.853 254.388 482.6C256.308 479.347 258.922 476.813 262.228 475C265.535 473.133 269.322 472.2 273.588 472.2C277.802 472.2 281.562 473.133 284.868 475C288.228 476.813 290.842 479.347 292.708 482.6C294.628 485.8 295.588 489.533 295.588 493.8C295.588 498.013 294.628 501.747 292.708 505C290.842 508.253 288.228 510.813 284.868 512.68C281.562 514.547 277.802 515.48 273.588 515.48ZM273.588 508.76C276.308 508.76 278.735 508.147 280.868 506.92C283.055 505.693 284.762 503.96 285.988 501.72C287.215 499.427 287.828 496.787 287.828 493.8C287.828 490.76 287.215 488.147 285.988 485.96C284.762 483.72 283.055 481.987 280.868 480.76C278.735 479.533 276.308 478.92 273.588 478.92C270.868 478.92 268.442 479.533 266.308 480.76C264.175 481.987 262.468 483.72 261.188 485.96C259.908 488.147 259.268 490.76 259.268 493.8C259.268 496.787 259.908 499.427 261.188 501.72C262.468 503.96 264.175 505.693 266.308 506.92C268.442 508.147 270.868 508.76 273.588 508.76ZM332.139 515V506.04L331.739 504.36V489.08C331.739 485.827 330.779 483.32 328.859 481.56C326.992 479.747 324.166 478.84 320.379 478.84C317.872 478.84 315.419 479.267 313.019 480.12C310.619 480.92 308.592 482.013 306.939 483.4L303.739 477.64C305.926 475.88 308.539 474.547 311.579 473.64C314.672 472.68 317.899 472.2 321.259 472.2C327.072 472.2 331.552 473.613 334.699 476.44C337.846 479.267 339.419 483.587 339.419 489.4V515H332.139ZM318.219 515.48C315.072 515.48 312.299 514.947 309.899 513.88C307.552 512.813 305.739 511.347 304.459 509.48C303.179 507.56 302.539 505.4 302.539 503C302.539 500.707 303.072 498.627 304.139 496.76C305.259 494.893 307.046 493.4 309.499 492.28C312.006 491.16 315.366 490.6 319.579 490.6H333.019V496.12H319.899C316.059 496.12 313.472 496.76 312.139 498.04C310.806 499.32 310.139 500.867 310.139 502.68C310.139 504.76 310.966 506.44 312.619 507.72C314.272 508.947 316.566 509.56 319.499 509.56C322.379 509.56 324.886 508.92 327.019 507.64C329.206 506.36 330.779 504.493 331.739 502.04L333.259 507.32C332.246 509.827 330.459 511.827 327.899 513.32C325.339 514.76 322.112 515.48 318.219 515.48ZM376.272 472.2C379.738 472.2 382.778 472.867 385.392 474.2C388.058 475.533 390.138 477.56 391.632 480.28C393.125 483 393.872 486.44 393.872 490.6V515H386.192V491.48C386.192 487.373 385.178 484.28 383.152 482.2C381.178 480.12 378.378 479.08 374.752 479.08C372.032 479.08 369.658 479.613 367.632 480.68C365.605 481.747 364.032 483.32 362.912 485.4C361.845 487.48 361.312 490.067 361.312 493.16V515H353.632V472.6H360.992V484.04L359.792 481C361.178 478.227 363.312 476.067 366.192 474.52C369.072 472.973 372.432 472.2 376.272 472.2Z" fill="black"/>
<path d="M192.083 174.583C192.083 140.485 192.083 123.436 202.676 112.843C213.269 102.25 230.318 102.25 264.417 102.25H300.583C334.681 102.25 351.731 102.25 362.323 112.843C372.917 123.436 372.917 140.485 372.917 174.583C372.917 208.681 372.917 225.731 362.323 236.323C351.731 246.917 334.681 246.917 300.583 246.917H264.417C230.318 246.917 213.269 246.917 202.676 236.323C192.083 225.731 192.083 208.681 192.083 174.583Z" stroke="black" stroke-width="15"/>
<path d="M318.667 102.25C318.667 85.2008 318.667 76.6763 313.37 71.3798C308.073 66.0833 299.549 66.0833 282.5 66.0833C265.451 66.0833 256.926 66.0833 251.63 71.3798C246.333 76.6763 246.333 85.2008 246.333 102.25" stroke="black" stroke-width="15"/>
<path d="M296.063 174.583H268.938M282.5 161.021V188.146" stroke="black" stroke-width="15" stroke-linecap="round"/>
<path d="M282.5 210.75C302.474 210.75 318.667 194.558 318.667 174.583C318.667 154.609 302.474 138.417 282.5 138.417C262.526 138.417 246.333 154.609 246.333 174.583C246.333 194.558 262.526 210.75 282.5 210.75Z" stroke="black" stroke-width="15"/>
</svg>
