<svg width="566" height="566" viewBox="0 0 566 566" fill="none" xmlns="http://www.w3.org/2000/svg">
<rect width="566" height="566" rx="20" fill="#DAF7F4"/>
<path d="M126.908 417V361H148.748C153.654 361 157.841 361.773 161.308 363.32C164.774 364.867 167.441 367.107 169.308 370.04C171.174 372.973 172.108 376.467 172.108 380.52C172.108 384.573 171.174 388.067 169.308 391C167.441 393.88 164.774 396.12 161.308 397.72C157.841 399.267 153.654 400.04 148.748 400.04H131.308L134.908 396.28V417H126.908ZM134.908 397.08L131.308 393.08H148.508C153.628 393.08 157.494 391.987 160.108 389.8C162.774 387.613 164.108 384.52 164.108 380.52C164.108 376.52 162.774 373.427 160.108 371.24C157.494 369.053 153.628 367.96 148.508 367.96H131.308L134.908 363.96V397.08ZM201.465 417.48C196.931 417.48 192.931 416.547 189.465 414.68C186.051 412.813 183.385 410.253 181.465 407C179.598 403.747 178.665 400.013 178.665 395.8C178.665 391.587 179.571 387.853 181.385 384.6C183.251 381.347 185.785 378.813 188.985 377C192.238 375.133 195.891 374.2 199.945 374.2C204.051 374.2 207.678 375.107 210.825 376.92C213.971 378.733 216.425 381.293 218.185 384.6C219.998 387.853 220.905 391.667 220.905 396.04C220.905 396.36 220.878 396.733 220.825 397.16C220.825 397.587 220.798 397.987 220.745 398.36H184.665V392.84H216.745L213.625 394.76C213.678 392.04 213.118 389.613 211.945 387.48C210.771 385.347 209.145 383.693 207.065 382.52C205.038 381.293 202.665 380.68 199.945 380.68C197.278 380.68 194.905 381.293 192.825 382.52C190.745 383.693 189.118 385.373 187.945 387.56C186.771 389.693 186.185 392.147 186.185 394.92V396.2C186.185 399.027 186.825 401.56 188.105 403.8C189.438 405.987 191.278 407.693 193.625 408.92C195.971 410.147 198.665 410.76 201.705 410.76C204.211 410.76 206.478 410.333 208.505 409.48C210.585 408.627 212.398 407.347 213.945 405.64L218.185 410.6C216.265 412.84 213.865 414.547 210.985 415.72C208.158 416.893 204.985 417.48 201.465 417.48ZM231.569 417V374.6H238.929V386.12L238.209 383.24C239.382 380.307 241.356 378.067 244.129 376.52C246.902 374.973 250.316 374.2 254.369 374.2V381.64C254.049 381.587 253.729 381.56 253.409 381.56C253.142 381.56 252.876 381.56 252.609 381.56C248.502 381.56 245.249 382.787 242.849 385.24C240.449 387.693 239.249 391.24 239.249 395.88V417H231.569ZM276.463 417.48C272.943 417.48 269.583 417 266.383 416.04C263.237 415.08 260.757 413.907 258.943 412.52L262.143 406.44C263.957 407.667 266.197 408.707 268.863 409.56C271.53 410.413 274.25 410.84 277.023 410.84C280.597 410.84 283.157 410.333 284.703 409.32C286.303 408.307 287.103 406.893 287.103 405.08C287.103 403.747 286.623 402.707 285.663 401.96C284.703 401.213 283.423 400.653 281.823 400.28C280.277 399.907 278.543 399.587 276.623 399.32C274.703 399 272.783 398.627 270.863 398.2C268.943 397.72 267.183 397.08 265.583 396.28C263.983 395.427 262.703 394.28 261.743 392.84C260.783 391.347 260.303 389.373 260.303 386.92C260.303 384.36 261.023 382.12 262.463 380.2C263.903 378.28 265.93 376.813 268.543 375.8C271.21 374.733 274.357 374.2 277.983 374.2C280.757 374.2 283.557 374.547 286.383 375.24C289.263 375.88 291.61 376.813 293.423 378.04L290.143 384.12C288.223 382.84 286.223 381.96 284.143 381.48C282.063 381 279.983 380.76 277.903 380.76C274.543 380.76 272.037 381.32 270.383 382.44C268.73 383.507 267.903 384.893 267.903 386.6C267.903 388.04 268.383 389.16 269.343 389.96C270.357 390.707 271.637 391.293 273.183 391.72C274.783 392.147 276.543 392.52 278.463 392.84C280.383 393.107 282.303 393.48 284.223 393.96C286.143 394.387 287.877 395 289.423 395.8C291.023 396.6 292.303 397.72 293.263 399.16C294.277 400.6 294.783 402.52 294.783 404.92C294.783 407.48 294.037 409.693 292.543 411.56C291.05 413.427 288.943 414.893 286.223 415.96C283.503 416.973 280.25 417.48 276.463 417.48ZM322.542 417.48C318.275 417.48 314.488 416.547 311.182 414.68C307.875 412.813 305.262 410.253 303.342 407C301.422 403.693 300.462 399.96 300.462 395.8C300.462 391.587 301.422 387.853 303.342 384.6C305.262 381.347 307.875 378.813 311.182 377C314.488 375.133 318.275 374.2 322.542 374.2C326.755 374.2 330.515 375.133 333.822 377C337.182 378.813 339.795 381.347 341.662 384.6C343.582 387.8 344.542 391.533 344.542 395.8C344.542 400.013 343.582 403.747 341.662 407C339.795 410.253 337.182 412.813 333.822 414.68C330.515 416.547 326.755 417.48 322.542 417.48ZM322.542 410.76C325.262 410.76 327.688 410.147 329.822 408.92C332.008 407.693 333.715 405.96 334.942 403.72C336.168 401.427 336.782 398.787 336.782 395.8C336.782 392.76 336.168 390.147 334.942 387.96C333.715 385.72 332.008 383.987 329.822 382.76C327.688 381.533 325.262 380.92 322.542 380.92C319.822 380.92 317.395 381.533 315.262 382.76C313.128 383.987 311.422 385.72 310.142 387.96C308.862 390.147 308.222 392.76 308.222 395.8C308.222 398.787 308.862 401.427 310.142 403.72C311.422 405.96 313.128 407.693 315.262 408.92C317.395 410.147 319.822 410.76 322.542 410.76ZM377.803 374.2C381.269 374.2 384.309 374.867 386.923 376.2C389.589 377.533 391.669 379.56 393.163 382.28C394.656 385 395.403 388.44 395.403 392.6V417H387.723V393.48C387.723 389.373 386.709 386.28 384.683 384.2C382.709 382.12 379.909 381.08 376.283 381.08C373.563 381.08 371.189 381.613 369.163 382.68C367.136 383.747 365.563 385.32 364.443 387.4C363.376 389.48 362.843 392.067 362.843 395.16V417H355.163V374.6H362.523V386.04L361.323 383C362.709 380.227 364.843 378.067 367.723 376.52C370.603 374.973 373.963 374.2 377.803 374.2ZM435.936 417V408.04L435.536 406.36V391.08C435.536 387.827 434.576 385.32 432.656 383.56C430.789 381.747 427.963 380.84 424.176 380.84C421.669 380.84 419.216 381.267 416.816 382.12C414.416 382.92 412.389 384.013 410.736 385.4L407.536 379.64C409.723 377.88 412.336 376.547 415.376 375.64C418.469 374.68 421.696 374.2 425.056 374.2C430.869 374.2 435.349 375.613 438.496 378.44C441.643 381.267 443.216 385.587 443.216 391.4V417H435.936ZM422.016 417.48C418.869 417.48 416.096 416.947 413.696 415.88C411.349 414.813 409.536 413.347 408.256 411.48C406.976 409.56 406.336 407.4 406.336 405C406.336 402.707 406.869 400.627 407.936 398.76C409.056 396.893 410.843 395.4 413.296 394.28C415.803 393.16 419.163 392.6 423.376 392.6H436.816V398.12H423.696C419.856 398.12 417.269 398.76 415.936 400.04C414.603 401.32 413.936 402.867 413.936 404.68C413.936 406.76 414.763 408.44 416.416 409.72C418.069 410.947 420.363 411.56 423.296 411.56C426.176 411.56 428.683 410.92 430.816 409.64C433.003 408.36 434.576 406.493 435.536 404.04L437.056 409.32C436.043 411.827 434.256 413.827 431.696 415.32C429.136 416.76 425.909 417.48 422.016 417.48ZM457.428 417V357.64H465.108V417H457.428ZM204.095 515V459H212.095V508.04H242.415V515H204.095ZM268.088 515.48C263.822 515.48 260.035 514.547 256.728 512.68C253.422 510.813 250.808 508.253 248.888 505C246.968 501.693 246.008 497.96 246.008 493.8C246.008 489.587 246.968 485.853 248.888 482.6C250.808 479.347 253.422 476.813 256.728 475C260.035 473.133 263.822 472.2 268.088 472.2C272.302 472.2 276.062 473.133 279.368 475C282.728 476.813 285.342 479.347 287.208 482.6C289.128 485.8 290.088 489.533 290.088 493.8C290.088 498.013 289.128 501.747 287.208 505C285.342 508.253 282.728 510.813 279.368 512.68C276.062 514.547 272.302 515.48 268.088 515.48ZM268.088 508.76C270.808 508.76 273.235 508.147 275.368 506.92C277.555 505.693 279.262 503.96 280.488 501.72C281.715 499.427 282.328 496.787 282.328 493.8C282.328 490.76 281.715 488.147 280.488 485.96C279.262 483.72 277.555 481.987 275.368 480.76C273.235 479.533 270.808 478.92 268.088 478.92C265.368 478.92 262.942 479.533 260.808 480.76C258.675 481.987 256.968 483.72 255.688 485.96C254.408 488.147 253.768 490.76 253.768 493.8C253.768 496.787 254.408 499.427 255.688 501.72C256.968 503.96 258.675 505.693 260.808 506.92C262.942 508.147 265.368 508.76 268.088 508.76ZM326.639 515V506.04L326.239 504.36V489.08C326.239 485.827 325.279 483.32 323.359 481.56C321.492 479.747 318.666 478.84 314.879 478.84C312.372 478.84 309.919 479.267 307.519 480.12C305.119 480.92 303.092 482.013 301.439 483.4L298.239 477.64C300.426 475.88 303.039 474.547 306.079 473.64C309.172 472.68 312.399 472.2 315.759 472.2C321.572 472.2 326.052 473.613 329.199 476.44C332.346 479.267 333.919 483.587 333.919 489.4V515H326.639ZM312.719 515.48C309.572 515.48 306.799 514.947 304.399 513.88C302.052 512.813 300.239 511.347 298.959 509.48C297.679 507.56 297.039 505.4 297.039 503C297.039 500.707 297.572 498.627 298.639 496.76C299.759 494.893 301.546 493.4 303.999 492.28C306.506 491.16 309.866 490.6 314.079 490.6H327.519V496.12H314.399C310.559 496.12 307.972 496.76 306.639 498.04C305.306 499.32 304.639 500.867 304.639 502.68C304.639 504.76 305.466 506.44 307.119 507.72C308.772 508.947 311.066 509.56 313.999 509.56C316.879 509.56 319.386 508.92 321.519 507.64C323.706 506.36 325.279 504.493 326.239 502.04L327.759 507.32C326.746 509.827 324.959 511.827 322.399 513.32C319.839 514.76 316.612 515.48 312.719 515.48ZM370.772 472.2C374.238 472.2 377.278 472.867 379.892 474.2C382.558 475.533 384.638 477.56 386.132 480.28C387.625 483 388.372 486.44 388.372 490.6V515H380.692V491.48C380.692 487.373 379.678 484.28 377.652 482.2C375.678 480.12 372.878 479.08 369.252 479.08C366.532 479.08 364.158 479.613 362.132 480.68C360.105 481.747 358.532 483.32 357.412 485.4C356.345 487.48 355.812 490.067 355.812 493.16V515H348.132V472.6H355.492V484.04L354.292 481C355.678 478.227 357.812 476.067 360.692 474.52C363.572 472.973 366.932 472.2 370.772 472.2Z" fill="black"/>
<g clip-path="url(#clip0_2_60)">
<path fill-rule="evenodd" clip-rule="evenodd" d="M244.251 234.349V171.947H272.231C284.091 174.076 295.95 180.533 307.81 188.02H329.541C339.378 188.612 344.533 198.618 334.965 205.193C327.351 210.804 317.294 210.483 306.984 209.553C299.875 209.198 299.572 218.782 306.984 218.816C309.562 219.018 312.358 218.41 314.801 218.41C327.654 218.393 338.25 215.925 344.735 205.734L347.987 198.111L380.313 182.037C396.485 176.696 407.991 193.666 396.064 205.48C372.649 222.568 348.644 236.63 324.083 247.988C306.243 258.873 288.403 258.501 270.581 247.988L244.251 234.349ZM265.443 86L385.738 118.333L368.976 181.09L248.681 148.757L265.443 86ZM322.162 115.105C332.337 117.843 338.368 128.306 335.639 138.514C332.91 148.723 322.482 154.774 312.307 152.036C302.133 149.298 296.102 138.836 298.831 128.627C301.543 118.418 311.97 112.367 322.162 115.105ZM282.996 100.958L362.979 122.458C361.615 127.562 364.647 132.852 369.751 134.204L363.131 159.017C358.043 157.647 352.771 160.69 351.423 165.811L271.423 144.312C272.787 139.207 269.755 133.934 264.651 132.565L271.271 107.753C276.359 109.122 281.631 106.08 282.996 100.958ZM194 165.946H235.828V240.619H194V165.946Z" fill="black"/>
</g>
<defs>
<clipPath id="clip0_2_60">
<rect width="207" height="170" fill="white" transform="translate(194 86)"/>
</clipPath>
</defs>
</svg>
